<svg width="1363" height="163" viewBox="0 0 1363 163" fill="none" xmlns="http://www.w3.org/2000/svg">
<path d="M0 15C0 6.71573 6.71573 0 15 0H37V163H15C6.71573 163 0 156.284 0 148V15Z" fill="#424242"/>
<rect width="1097" height="163" transform="translate(37)" fill="#F0F0F0"/>
<path d="M101.906 53.9219L94.3945 51.2383V48.0859L104.602 52.375V54.6367L101.906 53.9219ZM94.3945 56.1719L101.918 53.4297L104.602 52.7852V55.0352L94.3945 59.3242V56.1719ZM118.137 61H114.422L114.445 58.2578H118.137C119.059 58.2578 119.836 58.0508 120.469 57.6367C121.102 57.2148 121.578 56.6016 121.898 55.7969C122.227 54.9922 122.391 54.0195 122.391 52.8789V52.0469C122.391 51.1719 122.297 50.4023 122.109 49.7383C121.93 49.0742 121.66 48.5156 121.301 48.0625C120.941 47.6094 120.5 47.2695 119.977 47.043C119.453 46.8086 118.852 46.6914 118.172 46.6914H114.352V43.9375H118.172C119.312 43.9375 120.355 44.1328 121.301 44.5234C122.254 44.9062 123.078 45.457 123.773 46.1758C124.469 46.8945 125.004 47.7539 125.379 48.7539C125.762 49.7461 125.953 50.8516 125.953 52.0703V52.8789C125.953 54.0898 125.762 55.1953 125.379 56.1953C125.004 57.1953 124.469 58.0547 123.773 58.7734C123.086 59.4844 122.262 60.0352 121.301 60.4258C120.348 60.8086 119.293 61 118.137 61ZM116.414 43.9375V61H112.898V43.9375H116.414ZM131.672 51.0859V61H128.297V48.3203H131.473L131.672 51.0859ZM135.492 48.2383L135.434 51.3672C135.27 51.3438 135.07 51.3242 134.836 51.3086C134.609 51.2852 134.402 51.2734 134.215 51.2734C133.738 51.2734 133.324 51.3359 132.973 51.4609C132.629 51.5781 132.34 51.7539 132.105 51.9883C131.879 52.2227 131.707 52.5078 131.59 52.8438C131.48 53.1797 131.418 53.5625 131.402 53.9922L130.723 53.7812C130.723 52.9609 130.805 52.207 130.969 51.5195C131.133 50.8242 131.371 50.2188 131.684 49.7031C132.004 49.1875 132.395 48.7891 132.855 48.5078C133.316 48.2266 133.844 48.0859 134.438 48.0859C134.625 48.0859 134.816 48.1016 135.012 48.1328C135.207 48.1562 135.367 48.1914 135.492 48.2383ZM143.531 58.1406V52.4922C143.531 52.0859 143.465 51.7383 143.332 51.4492C143.199 51.1523 142.992 50.9219 142.711 50.7578C142.438 50.5938 142.082 50.5117 141.645 50.5117C141.27 50.5117 140.945 50.5781 140.672 50.7109C140.398 50.8359 140.188 51.0195 140.039 51.2617C139.891 51.4961 139.816 51.7734 139.816 52.0938H136.441C136.441 51.5547 136.566 51.043 136.816 50.5586C137.066 50.0742 137.43 49.6484 137.906 49.2812C138.383 48.9062 138.949 48.6133 139.605 48.4023C140.27 48.1914 141.012 48.0859 141.832 48.0859C142.816 48.0859 143.691 48.25 144.457 48.5781C145.223 48.9062 145.824 49.3984 146.262 50.0547C146.707 50.7109 146.93 51.5312 146.93 52.5156V57.9414C146.93 58.6367 146.973 59.207 147.059 59.6523C147.145 60.0898 147.27 60.4727 147.434 60.8008V61H144.023C143.859 60.6562 143.734 60.2266 143.648 59.7109C143.57 59.1875 143.531 58.6641 143.531 58.1406ZM143.977 53.2773L144 55.1875H142.113C141.668 55.1875 141.281 55.2383 140.953 55.3398C140.625 55.4414 140.355 55.5859 140.145 55.7734C139.934 55.9531 139.777 56.1641 139.676 56.4062C139.582 56.6484 139.535 56.9141 139.535 57.2031C139.535 57.4922 139.602 57.7539 139.734 57.9883C139.867 58.2148 140.059 58.3945 140.309 58.5273C140.559 58.6523 140.852 58.7148 141.188 58.7148C141.695 58.7148 142.137 58.6133 142.512 58.4102C142.887 58.207 143.176 57.957 143.379 57.6602C143.59 57.3633 143.699 57.082 143.707 56.8164L144.598 58.2461C144.473 58.5664 144.301 58.8984 144.082 59.2422C143.871 59.5859 143.602 59.9102 143.273 60.2148C142.945 60.5117 142.551 60.7578 142.09 60.9531C141.629 61.1406 141.082 61.2344 140.449 61.2344C139.645 61.2344 138.914 61.0742 138.258 60.7539C137.609 60.4258 137.094 59.9766 136.711 59.4062C136.336 58.8281 136.148 58.1719 136.148 57.4375C136.148 56.7734 136.273 56.1836 136.523 55.668C136.773 55.1523 137.141 54.7188 137.625 54.3672C138.117 54.0078 138.73 53.7383 139.465 53.5586C140.199 53.3711 141.051 53.2773 142.02 53.2773H143.977ZM157.559 48.3203H160.617V60.5781C160.617 61.7344 160.359 62.7148 159.844 63.5195C159.336 64.332 158.625 64.9453 157.711 65.3594C156.797 65.7812 155.734 65.9922 154.523 65.9922C153.992 65.9922 153.43 65.9219 152.836 65.7812C152.25 65.6406 151.688 65.4219 151.148 65.125C150.617 64.8281 150.172 64.4531 149.812 64L151.301 62.0078C151.691 62.4609 152.145 62.8125 152.66 63.0625C153.176 63.3203 153.746 63.4492 154.371 63.4492C154.98 63.4492 155.496 63.3359 155.918 63.1094C156.34 62.8906 156.664 62.5664 156.891 62.1367C157.117 61.7148 157.23 61.2031 157.23 60.6016V51.25L157.559 48.3203ZM149.027 54.8125V54.5664C149.027 53.5977 149.145 52.7188 149.379 51.9297C149.621 51.1328 149.961 50.4492 150.398 49.8789C150.844 49.3086 151.383 48.8672 152.016 48.5547C152.648 48.2422 153.363 48.0859 154.16 48.0859C155.004 48.0859 155.711 48.2422 156.281 48.5547C156.852 48.8672 157.32 49.3125 157.688 49.8906C158.055 50.4609 158.34 51.1367 158.543 51.918C158.754 52.6914 158.918 53.5391 159.035 54.4609V55C158.918 55.8828 158.742 56.7031 158.508 57.4609C158.273 58.2188 157.965 58.8828 157.582 59.4531C157.199 60.0156 156.723 60.4531 156.152 60.7656C155.59 61.0781 154.918 61.2344 154.137 61.2344C153.355 61.2344 152.648 61.0742 152.016 60.7539C151.391 60.4336 150.855 59.9844 150.41 59.4062C149.965 58.8281 149.621 58.1484 149.379 57.3672C149.145 56.5859 149.027 55.7344 149.027 54.8125ZM152.402 54.5664V54.8125C152.402 55.3359 152.453 55.8242 152.555 56.2773C152.656 56.7305 152.812 57.1328 153.023 57.4844C153.242 57.8281 153.512 58.0977 153.832 58.293C154.16 58.4805 154.547 58.5742 154.992 58.5742C155.609 58.5742 156.113 58.4453 156.504 58.1875C156.895 57.9219 157.188 57.5586 157.383 57.0977C157.578 56.6367 157.691 56.1055 157.723 55.5039V53.9688C157.707 53.4766 157.641 53.0352 157.523 52.6445C157.406 52.2461 157.242 51.9062 157.031 51.625C156.82 51.3438 156.547 51.125 156.211 50.9688C155.875 50.8125 155.477 50.7344 155.016 50.7344C154.57 50.7344 154.184 50.8359 153.855 51.0391C153.535 51.2344 153.266 51.5039 153.047 51.8477C152.836 52.1914 152.676 52.5977 152.566 53.0664C152.457 53.5273 152.402 54.0273 152.402 54.5664ZM171.902 51.8711L175.184 49.75C175.668 49.4297 175.992 49.1211 176.156 48.8242C176.32 48.5273 176.402 48.1953 176.402 47.8281C176.402 47.4609 176.266 47.1211 175.992 46.8086C175.719 46.4883 175.336 46.3281 174.844 46.3281C174.492 46.3281 174.195 46.4102 173.953 46.5742C173.711 46.7305 173.527 46.9414 173.402 47.207C173.285 47.4727 173.227 47.7695 173.227 48.0977C173.227 48.4492 173.32 48.8086 173.508 49.1758C173.695 49.5352 173.949 49.918 174.27 50.3242C174.59 50.7227 174.945 51.1562 175.336 51.625L183.387 61H179.555L172.992 53.4062C172.438 52.7188 171.953 52.0898 171.539 51.5195C171.125 50.9414 170.801 50.3789 170.566 49.832C170.332 49.2852 170.215 48.7227 170.215 48.1445C170.215 47.2539 170.406 46.4766 170.789 45.8125C171.172 45.1406 171.711 44.6211 172.406 44.2539C173.102 43.8789 173.918 43.6914 174.855 43.6914C175.738 43.6914 176.504 43.875 177.152 44.2422C177.801 44.6016 178.301 45.0781 178.652 45.6719C179.012 46.2656 179.191 46.918 179.191 47.6289C179.191 48.1602 179.094 48.6523 178.898 49.1055C178.703 49.5508 178.434 49.9648 178.09 50.3477C177.746 50.7227 177.352 51.0703 176.906 51.3906L173.168 54.0508C172.879 54.3164 172.66 54.5781 172.512 54.8359C172.363 55.0938 172.262 55.3398 172.207 55.5742C172.152 55.8008 172.125 56.0195 172.125 56.2305C172.125 56.6836 172.223 57.0898 172.418 57.4492C172.613 57.8086 172.887 58.0898 173.238 58.293C173.59 58.4961 174 58.5977 174.469 58.5977C175.109 58.5977 175.73 58.457 176.332 58.1758C176.934 57.8945 177.473 57.4922 177.949 56.9688C178.426 56.4375 178.805 55.8086 179.086 55.082C179.367 54.3555 179.508 53.5547 179.508 52.6797H182.367C182.367 53.5547 182.281 54.3867 182.109 55.1758C181.938 55.957 181.66 56.6836 181.277 57.3555C180.895 58.0195 180.387 58.6094 179.754 59.125C179.707 59.1641 179.641 59.2227 179.555 59.3008C179.477 59.3711 179.41 59.4258 179.355 59.4648C178.605 60.0664 177.824 60.5156 177.012 60.8125C176.199 61.1016 175.293 61.2461 174.293 61.2461C173.152 61.2461 172.164 61.0391 171.328 60.625C170.5 60.2109 169.859 59.6406 169.406 58.9141C168.961 58.1875 168.738 57.3555 168.738 56.418C168.738 55.7305 168.871 55.1328 169.137 54.625C169.41 54.1094 169.785 53.6328 170.262 53.1953C170.738 52.7578 171.285 52.3164 171.902 51.8711ZM202.582 50.8867V53.6289H193.676V50.8867H202.582ZM194.719 43.9375V61H191.203V43.9375H194.719ZM205.09 43.9375V61H201.586V43.9375H205.09ZM207.398 54.7891V54.543C207.398 53.6133 207.531 52.7578 207.797 51.9766C208.062 51.1875 208.449 50.5039 208.957 49.9258C209.465 49.3477 210.09 48.8984 210.832 48.5781C211.574 48.25 212.426 48.0859 213.387 48.0859C214.348 48.0859 215.203 48.25 215.953 48.5781C216.703 48.8984 217.332 49.3477 217.84 49.9258C218.355 50.5039 218.746 51.1875 219.012 51.9766C219.277 52.7578 219.41 53.6133 219.41 54.543V54.7891C219.41 55.7109 219.277 56.5664 219.012 57.3555C218.746 58.1367 218.355 58.8203 217.84 59.4062C217.332 59.9844 216.707 60.4336 215.965 60.7539C215.223 61.0742 214.371 61.2344 213.41 61.2344C212.449 61.2344 211.594 61.0742 210.844 60.7539C210.102 60.4336 209.473 59.9844 208.957 59.4062C208.449 58.8203 208.062 58.1367 207.797 57.3555C207.531 56.5664 207.398 55.7109 207.398 54.7891ZM210.773 54.543V54.7891C210.773 55.3203 210.82 55.8164 210.914 56.2773C211.008 56.7383 211.156 57.1445 211.359 57.4961C211.57 57.8398 211.844 58.1094 212.18 58.3047C212.516 58.5 212.926 58.5977 213.41 58.5977C213.879 58.5977 214.281 58.5 214.617 58.3047C214.953 58.1094 215.223 57.8398 215.426 57.4961C215.629 57.1445 215.777 56.7383 215.871 56.2773C215.973 55.8164 216.023 55.3203 216.023 54.7891V54.543C216.023 54.0273 215.973 53.543 215.871 53.0898C215.777 52.6289 215.625 52.2227 215.414 51.8711C215.211 51.5117 214.941 51.2305 214.605 51.0273C214.27 50.8242 213.863 50.7227 213.387 50.7227C212.91 50.7227 212.504 50.8242 212.168 51.0273C211.84 51.2305 211.57 51.5117 211.359 51.8711C211.156 52.2227 211.008 52.6289 210.914 53.0898C210.82 53.543 210.773 54.0273 210.773 54.543ZM228.34 57.4961C228.34 57.2539 228.27 57.0352 228.129 56.8398C227.988 56.6445 227.727 56.4648 227.344 56.3008C226.969 56.1289 226.426 55.9727 225.715 55.832C225.074 55.6914 224.477 55.5156 223.922 55.3047C223.375 55.0859 222.898 54.8242 222.492 54.5195C222.094 54.2148 221.781 53.8555 221.555 53.4414C221.328 53.0195 221.215 52.5391 221.215 52C221.215 51.4688 221.328 50.9688 221.555 50.5C221.789 50.0312 222.121 49.6172 222.551 49.2578C222.988 48.8906 223.52 48.6055 224.145 48.4023C224.777 48.1914 225.488 48.0859 226.277 48.0859C227.379 48.0859 228.324 48.2617 229.113 48.6133C229.91 48.9648 230.52 49.4492 230.941 50.0664C231.371 50.6758 231.586 51.3711 231.586 52.1523H228.211C228.211 51.8242 228.141 51.5312 228 51.2734C227.867 51.0078 227.656 50.8008 227.367 50.6523C227.086 50.4961 226.719 50.418 226.266 50.418C225.891 50.418 225.566 50.4844 225.293 50.6172C225.02 50.7422 224.809 50.9141 224.66 51.1328C224.52 51.3438 224.449 51.5781 224.449 51.8359C224.449 52.0312 224.488 52.207 224.566 52.3633C224.652 52.5117 224.789 52.6484 224.977 52.7734C225.164 52.8984 225.406 53.0156 225.703 53.125C226.008 53.2266 226.383 53.3203 226.828 53.4062C227.742 53.5938 228.559 53.8398 229.277 54.1445C229.996 54.4414 230.566 54.8477 230.988 55.3633C231.41 55.8711 231.621 56.5391 231.621 57.3672C231.621 57.9297 231.496 58.4453 231.246 58.9141C230.996 59.3828 230.637 59.793 230.168 60.1445C229.699 60.4883 229.137 60.7578 228.48 60.9531C227.832 61.1406 227.102 61.2344 226.289 61.2344C225.109 61.2344 224.109 61.0234 223.289 60.6016C222.477 60.1797 221.859 59.6445 221.438 58.9961C221.023 58.3398 220.816 57.668 220.816 56.9805H224.016C224.031 57.4414 224.148 57.8125 224.367 58.0938C224.594 58.375 224.879 58.5781 225.223 58.7031C225.574 58.8281 225.953 58.8906 226.359 58.8906C226.797 58.8906 227.16 58.832 227.449 58.7148C227.738 58.5898 227.957 58.4258 228.105 58.2227C228.262 58.0117 228.34 57.7695 228.34 57.4961ZM240.023 48.3203V50.7109H232.641V48.3203H240.023ZM234.469 45.1914H237.844V57.1797C237.844 57.5469 237.891 57.8281 237.984 58.0234C238.086 58.2188 238.234 58.3555 238.43 58.4336C238.625 58.5039 238.871 58.5391 239.168 58.5391C239.379 58.5391 239.566 58.5312 239.73 58.5156C239.902 58.4922 240.047 58.4688 240.164 58.4453L240.176 60.9297C239.887 61.0234 239.574 61.0977 239.238 61.1523C238.902 61.207 238.531 61.2344 238.125 61.2344C237.383 61.2344 236.734 61.1133 236.18 60.8711C235.633 60.6211 235.211 60.2227 234.914 59.6758C234.617 59.1289 234.469 58.4102 234.469 57.5195V45.1914Z" fill="#888888"/>
<path d="M114.117 84.875H122.344V107.164C122.344 109.82 121.789 112.07 120.68 113.914C119.57 115.742 118.016 117.125 116.016 118.062C114.016 119 111.664 119.469 108.961 119.469C106.289 119.469 103.938 119 101.906 118.062C99.8906 117.125 98.3125 115.742 97.1719 113.914C96.0469 112.07 95.4844 109.82 95.4844 107.164V84.875H103.734V107.164C103.734 108.57 103.938 109.719 104.344 110.609C104.75 111.484 105.344 112.125 106.125 112.531C106.906 112.938 107.852 113.141 108.961 113.141C110.086 113.141 111.031 112.938 111.797 112.531C112.562 112.125 113.141 111.484 113.531 110.609C113.922 109.719 114.117 108.57 114.117 107.164V84.875ZM136.266 84.875V119H128.062V84.875H136.266ZM172.523 84.875H180.75V107.164C180.75 109.82 180.195 112.07 179.086 113.914C177.977 115.742 176.422 117.125 174.422 118.062C172.422 119 170.07 119.469 167.367 119.469C164.695 119.469 162.344 119 160.312 118.062C158.297 117.125 156.719 115.742 155.578 113.914C154.453 112.07 153.891 109.82 153.891 107.164V84.875H162.141V107.164C162.141 108.57 162.344 109.719 162.75 110.609C163.156 111.484 163.75 112.125 164.531 112.531C165.312 112.938 166.258 113.141 167.367 113.141C168.492 113.141 169.438 112.938 170.203 112.531C170.969 112.125 171.547 111.484 171.938 110.609C172.328 109.719 172.523 108.57 172.523 107.164V84.875ZM193.078 84.875L198.656 96.2188L204.234 84.875H213.609L204.094 101.797L213.867 119H204.398L198.656 107.445L192.914 119H183.422L193.219 101.797L183.68 84.875H193.078Z" fill="black"/>
<path d="M1134 0H1348C1356.28 0 1363 6.71573 1363 15V148C1363 156.284 1356.28 163 1348 163H1134V0Z" fill="#1299F3"/>
<path d="M1248.5 111.917C1244.51 111.917 1240.55 111.13 1236.86 109.601C1233.17 108.073 1229.82 105.832 1226.99 103.008C1221.29 97.3036 1218.08 89.567 1218.08 81.5C1218.08 73.433 1221.29 65.6964 1226.99 59.9922C1232.7 54.2879 1240.43 51.0833 1248.5 51.0833C1265.23 51.0833 1278.92 63.25 1278.92 78.4583C1278.92 83.2985 1276.99 87.9405 1273.57 91.363C1270.15 94.7856 1265.51 96.7083 1260.67 96.7083H1255.19C1254.28 96.7083 1253.67 97.3167 1253.67 98.2292C1253.67 98.5333 1253.97 98.8375 1253.97 99.1417C1255.19 100.662 1255.8 102.487 1255.8 104.312C1256.1 108.571 1252.76 111.917 1248.5 111.917ZM1248.5 57.1667C1242.05 57.1667 1235.86 59.7303 1231.29 64.2937C1226.73 68.8571 1224.17 75.0464 1224.17 81.5C1224.17 87.9536 1226.73 94.1429 1231.29 98.7063C1235.86 103.27 1242.05 105.833 1248.5 105.833C1249.41 105.833 1250.02 105.225 1250.02 104.312C1250.02 103.704 1249.72 103.4 1249.72 103.096C1248.5 101.575 1247.89 100.054 1247.89 98.2292C1247.89 93.9708 1251.24 90.625 1255.5 90.625H1260.67C1263.89 90.625 1266.99 89.3432 1269.27 87.0615C1271.55 84.7798 1272.83 81.6851 1272.83 78.4583C1272.83 66.5958 1261.88 57.1667 1248.5 57.1667ZM1231.77 75.4167C1234.2 75.4167 1236.33 77.5458 1236.33 79.9792C1236.33 82.4125 1234.2 84.5417 1231.77 84.5417C1229.34 84.5417 1227.21 82.4125 1227.21 79.9792C1227.21 77.5458 1229.34 75.4167 1231.77 75.4167ZM1240.9 63.25C1243.33 63.25 1245.46 65.3792 1245.46 67.8125C1245.46 70.2458 1243.33 72.375 1240.9 72.375C1238.46 72.375 1236.33 70.2458 1236.33 67.8125C1236.33 65.3792 1238.46 63.25 1240.9 63.25ZM1256.1 63.25C1258.54 63.25 1260.67 65.3792 1260.67 67.8125C1260.67 70.2458 1258.54 72.375 1256.1 72.375C1253.67 72.375 1251.54 70.2458 1251.54 67.8125C1251.54 65.3792 1253.67 63.25 1256.1 63.25ZM1265.23 75.4167C1267.66 75.4167 1269.79 77.5458 1269.79 79.9792C1269.79 82.4125 1267.66 84.5417 1265.23 84.5417C1262.8 84.5417 1260.67 82.4125 1260.67 79.9792C1260.67 77.5458 1262.8 75.4167 1265.23 75.4167Z" fill="white"/>
</svg>
