<svg width="1363" height="163" viewBox="0 0 1363 163" fill="none" xmlns="http://www.w3.org/2000/svg">
<path d="M0 15C0 6.71573 6.71573 0 15 0H37V163H15C6.71573 163 0 156.284 0 148V15Z" fill="#424242"/>
<rect width="1097" height="163" transform="translate(37)" fill="#F0F0F0"/>
<path d="M101.906 53.9219L94.3945 51.2383V48.0859L104.602 52.375V54.6367L101.906 53.9219ZM94.3945 56.1719L101.918 53.4297L104.602 52.7852V55.0352L94.3945 59.3242V56.1719ZM119.578 53.5117H115.195L115.172 51.0977H118.852C119.5 51.0977 120.031 51.0156 120.445 50.8516C120.859 50.6797 121.168 50.4336 121.371 50.1133C121.582 49.7852 121.688 49.3867 121.688 48.918C121.688 48.3867 121.586 47.957 121.383 47.6289C121.188 47.3008 120.879 47.0625 120.457 46.9141C120.043 46.7656 119.508 46.6914 118.852 46.6914H116.414V61H112.898V43.9375H118.852C119.844 43.9375 120.73 44.0312 121.512 44.2188C122.301 44.4062 122.969 44.6914 123.516 45.0742C124.062 45.457 124.48 45.9414 124.77 46.5273C125.059 47.1055 125.203 47.793 125.203 48.5898C125.203 49.293 125.043 49.9414 124.723 50.5352C124.41 51.1289 123.914 51.6133 123.234 51.9883C122.562 52.3633 121.684 52.5703 120.598 52.6094L119.578 53.5117ZM119.426 61H114.234L115.605 58.2578H119.426C120.043 58.2578 120.547 58.1602 120.938 57.9648C121.328 57.7617 121.617 57.4883 121.805 57.1445C121.992 56.8008 122.086 56.4062 122.086 55.9609C122.086 55.4609 122 55.0273 121.828 54.6602C121.664 54.293 121.398 54.0117 121.031 53.8164C120.664 53.6133 120.18 53.5117 119.578 53.5117H116.191L116.215 51.0977H120.434L121.242 52.0469C122.281 52.0312 123.117 52.2148 123.75 52.5977C124.391 52.9727 124.855 53.4609 125.145 54.0625C125.441 54.6641 125.59 55.3086 125.59 55.9961C125.59 57.0898 125.352 58.0117 124.875 58.7617C124.398 59.5039 123.699 60.0625 122.777 60.4375C121.863 60.8125 120.746 61 119.426 61ZM135.516 57.9648V48.3203H138.891V61H135.715L135.516 57.9648ZM135.891 55.3633L136.887 55.3398C136.887 56.1836 136.789 56.9688 136.594 57.6953C136.398 58.4141 136.105 59.0391 135.715 59.5703C135.324 60.0938 134.832 60.5039 134.238 60.8008C133.645 61.0898 132.945 61.2344 132.141 61.2344C131.523 61.2344 130.953 61.1484 130.43 60.9766C129.914 60.7969 129.469 60.5195 129.094 60.1445C128.727 59.7617 128.438 59.2734 128.227 58.6797C128.023 58.0781 127.922 57.3555 127.922 56.5117V48.3203H131.297V56.5352C131.297 56.9102 131.34 57.2266 131.426 57.4844C131.52 57.7422 131.648 57.9531 131.812 58.1172C131.977 58.2812 132.168 58.3984 132.387 58.4688C132.613 58.5391 132.863 58.5742 133.137 58.5742C133.832 58.5742 134.379 58.4336 134.777 58.1523C135.184 57.8711 135.469 57.4883 135.633 57.0039C135.805 56.5117 135.891 55.9648 135.891 55.3633ZM145.031 48.3203V61H141.645V48.3203H145.031ZM141.434 45.0156C141.434 44.5234 141.605 44.1172 141.949 43.7969C142.293 43.4766 142.754 43.3164 143.332 43.3164C143.902 43.3164 144.359 43.4766 144.703 43.7969C145.055 44.1172 145.23 44.5234 145.23 45.0156C145.23 45.5078 145.055 45.9141 144.703 46.2344C144.359 46.5547 143.902 46.7148 143.332 46.7148C142.754 46.7148 142.293 46.5547 141.949 46.2344C141.605 45.9141 141.434 45.5078 141.434 45.0156ZM151.383 43V61H147.996V43H151.383ZM161.66 58.2344V43H165.059V61H162L161.66 58.2344ZM153.645 54.8125V54.5664C153.645 53.5977 153.754 52.7188 153.973 51.9297C154.191 51.1328 154.512 50.4492 154.934 49.8789C155.355 49.3086 155.875 48.8672 156.492 48.5547C157.109 48.2422 157.812 48.0859 158.602 48.0859C159.344 48.0859 159.992 48.2422 160.547 48.5547C161.109 48.8672 161.586 49.3125 161.977 49.8906C162.375 50.4609 162.695 51.1367 162.938 51.918C163.18 52.6914 163.355 53.5391 163.465 54.4609V55C163.355 55.8828 163.18 56.7031 162.938 57.4609C162.695 58.2188 162.375 58.8828 161.977 59.4531C161.586 60.0156 161.109 60.4531 160.547 60.7656C159.984 61.0781 159.328 61.2344 158.578 61.2344C157.789 61.2344 157.086 61.0742 156.469 60.7539C155.859 60.4336 155.344 59.9844 154.922 59.4062C154.508 58.8281 154.191 58.1484 153.973 57.3672C153.754 56.5859 153.645 55.7344 153.645 54.8125ZM157.02 54.5664V54.8125C157.02 55.3359 157.059 55.8242 157.137 56.2773C157.223 56.7305 157.359 57.1328 157.547 57.4844C157.742 57.8281 157.992 58.0977 158.297 58.293C158.609 58.4805 158.988 58.5742 159.434 58.5742C160.012 58.5742 160.488 58.4453 160.863 58.1875C161.238 57.9219 161.523 57.5586 161.719 57.0977C161.922 56.6367 162.039 56.1055 162.07 55.5039V53.9688C162.047 53.4766 161.977 53.0352 161.859 52.6445C161.75 52.2461 161.586 51.9062 161.367 51.625C161.156 51.3438 160.891 51.125 160.57 50.9688C160.258 50.8125 159.887 50.7344 159.457 50.7344C159.02 50.7344 158.645 50.8359 158.332 51.0391C158.02 51.2344 157.766 51.5039 157.57 51.8477C157.383 52.1914 157.242 52.5977 157.148 53.0664C157.062 53.5273 157.02 54.0273 157.02 54.5664ZM176.355 51.8711L179.637 49.75C180.121 49.4297 180.445 49.1211 180.609 48.8242C180.773 48.5273 180.855 48.1953 180.855 47.8281C180.855 47.4609 180.719 47.1211 180.445 46.8086C180.172 46.4883 179.789 46.3281 179.297 46.3281C178.945 46.3281 178.648 46.4102 178.406 46.5742C178.164 46.7305 177.98 46.9414 177.855 47.207C177.738 47.4727 177.68 47.7695 177.68 48.0977C177.68 48.4492 177.773 48.8086 177.961 49.1758C178.148 49.5352 178.402 49.918 178.723 50.3242C179.043 50.7227 179.398 51.1562 179.789 51.625L187.84 61H184.008L177.445 53.4062C176.891 52.7188 176.406 52.0898 175.992 51.5195C175.578 50.9414 175.254 50.3789 175.02 49.832C174.785 49.2852 174.668 48.7227 174.668 48.1445C174.668 47.2539 174.859 46.4766 175.242 45.8125C175.625 45.1406 176.164 44.6211 176.859 44.2539C177.555 43.8789 178.371 43.6914 179.309 43.6914C180.191 43.6914 180.957 43.875 181.605 44.2422C182.254 44.6016 182.754 45.0781 183.105 45.6719C183.465 46.2656 183.645 46.918 183.645 47.6289C183.645 48.1602 183.547 48.6523 183.352 49.1055C183.156 49.5508 182.887 49.9648 182.543 50.3477C182.199 50.7227 181.805 51.0703 181.359 51.3906L177.621 54.0508C177.332 54.3164 177.113 54.5781 176.965 54.8359C176.816 55.0938 176.715 55.3398 176.66 55.5742C176.605 55.8008 176.578 56.0195 176.578 56.2305C176.578 56.6836 176.676 57.0898 176.871 57.4492C177.066 57.8086 177.34 58.0898 177.691 58.293C178.043 58.4961 178.453 58.5977 178.922 58.5977C179.562 58.5977 180.184 58.457 180.785 58.1758C181.387 57.8945 181.926 57.4922 182.402 56.9688C182.879 56.4375 183.258 55.8086 183.539 55.082C183.82 54.3555 183.961 53.5547 183.961 52.6797H186.82C186.82 53.5547 186.734 54.3867 186.562 55.1758C186.391 55.957 186.113 56.6836 185.73 57.3555C185.348 58.0195 184.84 58.6094 184.207 59.125C184.16 59.1641 184.094 59.2227 184.008 59.3008C183.93 59.3711 183.863 59.4258 183.809 59.4648C183.059 60.0664 182.277 60.5156 181.465 60.8125C180.652 61.1016 179.746 61.2461 178.746 61.2461C177.605 61.2461 176.617 61.0391 175.781 60.625C174.953 60.2109 174.312 59.6406 173.859 58.9141C173.414 58.1875 173.191 57.3555 173.191 56.418C173.191 55.7305 173.324 55.1328 173.59 54.625C173.863 54.1094 174.238 53.6328 174.715 53.1953C175.191 52.7578 175.738 52.3164 176.355 51.8711ZM207.035 50.8867V53.6289H198.129V50.8867H207.035ZM199.172 43.9375V61H195.656V43.9375H199.172ZM209.543 43.9375V61H206.039V43.9375H209.543ZM211.852 54.7891V54.543C211.852 53.6133 211.984 52.7578 212.25 51.9766C212.516 51.1875 212.902 50.5039 213.41 49.9258C213.918 49.3477 214.543 48.8984 215.285 48.5781C216.027 48.25 216.879 48.0859 217.84 48.0859C218.801 48.0859 219.656 48.25 220.406 48.5781C221.156 48.8984 221.785 49.3477 222.293 49.9258C222.809 50.5039 223.199 51.1875 223.465 51.9766C223.73 52.7578 223.863 53.6133 223.863 54.543V54.7891C223.863 55.7109 223.73 56.5664 223.465 57.3555C223.199 58.1367 222.809 58.8203 222.293 59.4062C221.785 59.9844 221.16 60.4336 220.418 60.7539C219.676 61.0742 218.824 61.2344 217.863 61.2344C216.902 61.2344 216.047 61.0742 215.297 60.7539C214.555 60.4336 213.926 59.9844 213.41 59.4062C212.902 58.8203 212.516 58.1367 212.25 57.3555C211.984 56.5664 211.852 55.7109 211.852 54.7891ZM215.227 54.543V54.7891C215.227 55.3203 215.273 55.8164 215.367 56.2773C215.461 56.7383 215.609 57.1445 215.812 57.4961C216.023 57.8398 216.297 58.1094 216.633 58.3047C216.969 58.5 217.379 58.5977 217.863 58.5977C218.332 58.5977 218.734 58.5 219.07 58.3047C219.406 58.1094 219.676 57.8398 219.879 57.4961C220.082 57.1445 220.23 56.7383 220.324 56.2773C220.426 55.8164 220.477 55.3203 220.477 54.7891V54.543C220.477 54.0273 220.426 53.543 220.324 53.0898C220.23 52.6289 220.078 52.2227 219.867 51.8711C219.664 51.5117 219.395 51.2305 219.059 51.0273C218.723 50.8242 218.316 50.7227 217.84 50.7227C217.363 50.7227 216.957 50.8242 216.621 51.0273C216.293 51.2305 216.023 51.5117 215.812 51.8711C215.609 52.2227 215.461 52.6289 215.367 53.0898C215.273 53.543 215.227 54.0273 215.227 54.543ZM232.793 57.4961C232.793 57.2539 232.723 57.0352 232.582 56.8398C232.441 56.6445 232.18 56.4648 231.797 56.3008C231.422 56.1289 230.879 55.9727 230.168 55.832C229.527 55.6914 228.93 55.5156 228.375 55.3047C227.828 55.0859 227.352 54.8242 226.945 54.5195C226.547 54.2148 226.234 53.8555 226.008 53.4414C225.781 53.0195 225.668 52.5391 225.668 52C225.668 51.4688 225.781 50.9688 226.008 50.5C226.242 50.0312 226.574 49.6172 227.004 49.2578C227.441 48.8906 227.973 48.6055 228.598 48.4023C229.23 48.1914 229.941 48.0859 230.73 48.0859C231.832 48.0859 232.777 48.2617 233.566 48.6133C234.363 48.9648 234.973 49.4492 235.395 50.0664C235.824 50.6758 236.039 51.3711 236.039 52.1523H232.664C232.664 51.8242 232.594 51.5312 232.453 51.2734C232.32 51.0078 232.109 50.8008 231.82 50.6523C231.539 50.4961 231.172 50.418 230.719 50.418C230.344 50.418 230.02 50.4844 229.746 50.6172C229.473 50.7422 229.262 50.9141 229.113 51.1328C228.973 51.3438 228.902 51.5781 228.902 51.8359C228.902 52.0312 228.941 52.207 229.02 52.3633C229.105 52.5117 229.242 52.6484 229.43 52.7734C229.617 52.8984 229.859 53.0156 230.156 53.125C230.461 53.2266 230.836 53.3203 231.281 53.4062C232.195 53.5938 233.012 53.8398 233.73 54.1445C234.449 54.4414 235.02 54.8477 235.441 55.3633C235.863 55.8711 236.074 56.5391 236.074 57.3672C236.074 57.9297 235.949 58.4453 235.699 58.9141C235.449 59.3828 235.09 59.793 234.621 60.1445C234.152 60.4883 233.59 60.7578 232.934 60.9531C232.285 61.1406 231.555 61.2344 230.742 61.2344C229.562 61.2344 228.562 61.0234 227.742 60.6016C226.93 60.1797 226.312 59.6445 225.891 58.9961C225.477 58.3398 225.27 57.668 225.27 56.9805H228.469C228.484 57.4414 228.602 57.8125 228.82 58.0938C229.047 58.375 229.332 58.5781 229.676 58.7031C230.027 58.8281 230.406 58.8906 230.812 58.8906C231.25 58.8906 231.613 58.832 231.902 58.7148C232.191 58.5898 232.41 58.4258 232.559 58.2227C232.715 58.0117 232.793 57.7695 232.793 57.4961ZM244.477 48.3203V50.7109H237.094V48.3203H244.477ZM238.922 45.1914H242.297V57.1797C242.297 57.5469 242.344 57.8281 242.438 58.0234C242.539 58.2188 242.688 58.3555 242.883 58.4336C243.078 58.5039 243.324 58.5391 243.621 58.5391C243.832 58.5391 244.02 58.5312 244.184 58.5156C244.355 58.4922 244.5 58.4688 244.617 58.4453L244.629 60.9297C244.34 61.0234 244.027 61.0977 243.691 61.1523C243.355 61.207 242.984 61.2344 242.578 61.2344C241.836 61.2344 241.188 61.1133 240.633 60.8711C240.086 60.6211 239.664 60.2227 239.367 59.6758C239.07 59.1289 238.922 58.4102 238.922 57.5195V45.1914Z" fill="#888888"/>
<path d="M112.125 84.875V119H103.898V84.875H112.125ZM122.391 84.875V91.2266H93.8672V84.875H122.391ZM135.68 119.469C133.617 119.469 131.773 119.148 130.148 118.508C128.523 117.852 127.148 116.953 126.023 115.812C124.914 114.672 124.062 113.359 123.469 111.875C122.891 110.391 122.602 108.82 122.602 107.164V106.273C122.602 104.414 122.859 102.695 123.375 101.117C123.891 99.5234 124.656 98.1328 125.672 96.9453C126.688 95.7578 127.961 94.8359 129.492 94.1797C131.023 93.5078 132.805 93.1719 134.836 93.1719C136.633 93.1719 138.242 93.4609 139.664 94.0391C141.086 94.6172 142.289 95.4453 143.273 96.5234C144.273 97.6016 145.031 98.9062 145.547 100.438C146.078 101.969 146.344 103.688 146.344 105.594V108.805H125.625V103.859H138.633V103.25C138.648 102.406 138.5 101.688 138.188 101.094C137.891 100.5 137.453 100.047 136.875 99.7344C136.297 99.4219 135.594 99.2656 134.766 99.2656C133.906 99.2656 133.195 99.4531 132.633 99.8281C132.086 100.203 131.656 100.719 131.344 101.375C131.047 102.016 130.836 102.758 130.711 103.602C130.586 104.445 130.523 105.336 130.523 106.273V107.164C130.523 108.102 130.648 108.953 130.898 109.719C131.164 110.484 131.539 111.141 132.023 111.688C132.523 112.219 133.117 112.633 133.805 112.93C134.508 113.227 135.305 113.375 136.195 113.375C137.273 113.375 138.336 113.172 139.383 112.766C140.43 112.359 141.328 111.688 142.078 110.75L145.664 115.016C145.148 115.75 144.414 116.461 143.461 117.148C142.523 117.836 141.398 118.398 140.086 118.836C138.773 119.258 137.305 119.469 135.68 119.469ZM160.266 113.375C161 113.375 161.625 113.242 162.141 112.977C162.672 112.695 163.07 112.305 163.336 111.805C163.617 111.289 163.75 110.672 163.734 109.953H171.164C171.18 111.859 170.711 113.531 169.758 114.969C168.82 116.391 167.539 117.5 165.914 118.297C164.305 119.078 162.484 119.469 160.453 119.469C158.469 119.469 156.734 119.148 155.25 118.508C153.766 117.852 152.523 116.945 151.523 115.789C150.539 114.617 149.797 113.25 149.297 111.688C148.812 110.125 148.57 108.43 148.57 106.602V106.062C148.57 104.234 148.812 102.539 149.297 100.977C149.797 99.3984 150.539 98.0312 151.523 96.875C152.523 95.7031 153.758 94.7969 155.227 94.1562C156.711 93.5 158.438 93.1719 160.406 93.1719C162.516 93.1719 164.375 93.5703 165.984 94.3672C167.609 95.1641 168.883 96.3203 169.805 97.8359C170.727 99.3516 171.18 101.188 171.164 103.344H163.734C163.75 102.578 163.633 101.891 163.383 101.281C163.133 100.672 162.742 100.188 162.211 99.8281C161.695 99.4531 161.031 99.2656 160.219 99.2656C159.406 99.2656 158.75 99.4453 158.25 99.8047C157.75 100.164 157.367 100.664 157.102 101.305C156.852 101.93 156.68 102.648 156.586 103.461C156.508 104.273 156.469 105.141 156.469 106.062V106.602C156.469 107.539 156.508 108.422 156.586 109.25C156.68 110.062 156.859 110.781 157.125 111.406C157.391 112.016 157.773 112.5 158.273 112.859C158.773 113.203 159.438 113.375 160.266 113.375ZM182.273 83V119H174.375V83H182.273ZM181.336 105.453L179.484 105.5C179.484 103.719 179.703 102.078 180.141 100.578C180.578 99.0781 181.203 97.7734 182.016 96.6641C182.828 95.5547 183.805 94.6953 184.945 94.0859C186.086 93.4766 187.352 93.1719 188.742 93.1719C189.992 93.1719 191.133 93.3516 192.164 93.7109C193.211 94.0703 194.109 94.6484 194.859 95.4453C195.625 96.2422 196.211 97.2812 196.617 98.5625C197.039 99.8438 197.25 101.406 197.25 103.25V119H189.305V103.203C189.305 102.172 189.156 101.375 188.859 100.812C188.578 100.234 188.172 99.8359 187.641 99.6172C187.109 99.3828 186.461 99.2656 185.695 99.2656C184.773 99.2656 184.023 99.4219 183.445 99.7344C182.867 100.047 182.422 100.484 182.109 101.047C181.812 101.594 181.609 102.242 181.5 102.992C181.391 103.742 181.336 104.562 181.336 105.453ZM231.539 109.93C231.539 109.398 231.461 108.922 231.305 108.5C231.148 108.062 230.859 107.656 230.438 107.281C230.016 106.906 229.406 106.531 228.609 106.156C227.828 105.766 226.797 105.359 225.516 104.938C224.016 104.438 222.57 103.875 221.18 103.25C219.789 102.609 218.547 101.867 217.453 101.023C216.359 100.164 215.492 99.1641 214.852 98.0234C214.211 96.8672 213.891 95.5234 213.891 93.9922C213.891 92.5234 214.219 91.2031 214.875 90.0312C215.531 88.8438 216.445 87.8359 217.617 87.0078C218.805 86.1641 220.195 85.5234 221.789 85.0859C223.383 84.6328 225.125 84.4062 227.016 84.4062C229.516 84.4062 231.719 84.8438 233.625 85.7188C235.547 86.5781 237.047 87.8047 238.125 89.3984C239.219 90.9766 239.766 92.8438 239.766 95H231.586C231.586 94.1406 231.406 93.3828 231.047 92.7266C230.703 92.0703 230.18 91.5547 229.477 91.1797C228.773 90.8047 227.891 90.6172 226.828 90.6172C225.797 90.6172 224.93 90.7734 224.227 91.0859C223.523 91.3984 222.992 91.8203 222.633 92.3516C222.273 92.8672 222.094 93.4375 222.094 94.0625C222.094 94.5781 222.234 95.0469 222.516 95.4688C222.812 95.875 223.227 96.2578 223.758 96.6172C224.305 96.9766 224.961 97.3203 225.727 97.6484C226.508 97.9766 227.383 98.2969 228.352 98.6094C230.164 99.1875 231.773 99.8359 233.18 100.555C234.602 101.258 235.797 102.062 236.766 102.969C237.75 103.859 238.492 104.875 238.992 106.016C239.508 107.156 239.766 108.445 239.766 109.883C239.766 111.414 239.469 112.773 238.875 113.961C238.281 115.148 237.43 116.156 236.32 116.984C235.211 117.797 233.883 118.414 232.336 118.836C230.789 119.258 229.062 119.469 227.156 119.469C225.406 119.469 223.68 119.25 221.977 118.812C220.289 118.359 218.758 117.672 217.383 116.75C216.008 115.812 214.906 114.617 214.078 113.164C213.266 111.695 212.859 109.953 212.859 107.938H221.109C221.109 108.938 221.242 109.781 221.508 110.469C221.773 111.156 222.164 111.711 222.68 112.133C223.195 112.539 223.828 112.836 224.578 113.023C225.328 113.195 226.188 113.281 227.156 113.281C228.203 113.281 229.047 113.133 229.688 112.836C230.328 112.523 230.797 112.117 231.094 111.617C231.391 111.102 231.539 110.539 231.539 109.93ZM256.992 93.6406V99.125H241.711V93.6406H256.992ZM244.922 87.3359H252.82V110.727C252.82 111.398 252.898 111.922 253.055 112.297C253.211 112.656 253.477 112.914 253.852 113.07C254.242 113.211 254.758 113.281 255.398 113.281C255.852 113.281 256.227 113.273 256.523 113.258C256.82 113.227 257.102 113.188 257.367 113.141V118.789C256.695 119.008 255.992 119.172 255.258 119.281C254.523 119.406 253.742 119.469 252.914 119.469C251.227 119.469 249.781 119.203 248.578 118.672C247.391 118.141 246.484 117.305 245.859 116.164C245.234 115.023 244.922 113.539 244.922 111.711V87.3359ZM273.305 112.625V102.172C273.305 101.453 273.203 100.836 273 100.32C272.797 99.8047 272.477 99.4062 272.039 99.125C271.602 98.8281 271.016 98.6797 270.281 98.6797C269.688 98.6797 269.18 98.7812 268.758 98.9844C268.336 99.1875 268.016 99.4922 267.797 99.8984C267.578 100.305 267.469 100.82 267.469 101.445H259.57C259.57 100.273 259.828 99.1875 260.344 98.1875C260.875 97.1719 261.625 96.2891 262.594 95.5391C263.578 94.7891 264.75 94.2109 266.109 93.8047C267.484 93.3828 269.016 93.1719 270.703 93.1719C272.719 93.1719 274.516 93.5078 276.094 94.1797C277.688 94.8516 278.945 95.8594 279.867 97.2031C280.789 98.5312 281.25 100.203 281.25 102.219V112.602C281.25 114.258 281.344 115.516 281.531 116.375C281.719 117.219 281.984 117.961 282.328 118.602V119H274.406C274.031 118.219 273.75 117.266 273.562 116.141C273.391 115 273.305 113.828 273.305 112.625ZM274.266 103.508L274.312 107.727H270.82C270.086 107.727 269.461 107.828 268.945 108.031C268.445 108.234 268.039 108.516 267.727 108.875C267.43 109.219 267.211 109.609 267.07 110.047C266.945 110.484 266.883 110.945 266.883 111.43C266.883 111.898 266.992 112.32 267.211 112.695C267.445 113.055 267.758 113.336 268.148 113.539C268.539 113.742 268.977 113.844 269.461 113.844C270.336 113.844 271.078 113.68 271.688 113.352C272.312 113.008 272.789 112.594 273.117 112.109C273.445 111.625 273.609 111.172 273.609 110.75L275.344 113.984C275.031 114.609 274.672 115.242 274.266 115.883C273.875 116.523 273.383 117.117 272.789 117.664C272.211 118.195 271.5 118.633 270.656 118.977C269.812 119.305 268.789 119.469 267.586 119.469C266.023 119.469 264.586 119.148 263.273 118.508C261.977 117.867 260.938 116.977 260.156 115.836C259.375 114.68 258.984 113.352 258.984 111.852C258.984 110.539 259.219 109.367 259.688 108.336C260.172 107.305 260.898 106.43 261.867 105.711C262.836 104.992 264.07 104.445 265.57 104.07C267.07 103.695 268.836 103.508 270.867 103.508H274.266ZM296.344 113.375C297.078 113.375 297.703 113.242 298.219 112.977C298.75 112.695 299.148 112.305 299.414 111.805C299.695 111.289 299.828 110.672 299.812 109.953H307.242C307.258 111.859 306.789 113.531 305.836 114.969C304.898 116.391 303.617 117.5 301.992 118.297C300.383 119.078 298.562 119.469 296.531 119.469C294.547 119.469 292.812 119.148 291.328 118.508C289.844 117.852 288.602 116.945 287.602 115.789C286.617 114.617 285.875 113.25 285.375 111.688C284.891 110.125 284.648 108.43 284.648 106.602V106.062C284.648 104.234 284.891 102.539 285.375 100.977C285.875 99.3984 286.617 98.0312 287.602 96.875C288.602 95.7031 289.836 94.7969 291.305 94.1562C292.789 93.5 294.516 93.1719 296.484 93.1719C298.594 93.1719 300.453 93.5703 302.062 94.3672C303.688 95.1641 304.961 96.3203 305.883 97.8359C306.805 99.3516 307.258 101.188 307.242 103.344H299.812C299.828 102.578 299.711 101.891 299.461 101.281C299.211 100.672 298.82 100.188 298.289 99.8281C297.773 99.4531 297.109 99.2656 296.297 99.2656C295.484 99.2656 294.828 99.4453 294.328 99.8047C293.828 100.164 293.445 100.664 293.18 101.305C292.93 101.93 292.758 102.648 292.664 103.461C292.586 104.273 292.547 105.141 292.547 106.062V106.602C292.547 107.539 292.586 108.422 292.664 109.25C292.758 110.062 292.938 110.781 293.203 111.406C293.469 112.016 293.852 112.5 294.352 112.859C294.852 113.203 295.516 113.375 296.344 113.375ZM318.586 82.9766V119H310.688V82.9766H318.586ZM334.805 93.6406L323.789 106.555L318.023 112.32L314.578 107.305L319.383 101.047L325.336 93.6406H334.805ZM326.344 119L319.57 107.445L325.406 103.297L335.391 119H326.344ZM350.156 111.875C350.156 111.438 350.008 111.062 349.711 110.75C349.43 110.422 348.93 110.125 348.211 109.859C347.492 109.578 346.484 109.297 345.188 109.016C343.953 108.75 342.789 108.398 341.695 107.961C340.617 107.523 339.672 106.992 338.859 106.367C338.047 105.742 337.406 105 336.938 104.141C336.484 103.281 336.258 102.297 336.258 101.188C336.258 100.109 336.484 99.0938 336.938 98.1406C337.406 97.1719 338.086 96.3203 338.977 95.5859C339.883 94.8359 340.984 94.25 342.281 93.8281C343.578 93.3906 345.055 93.1719 346.711 93.1719C348.992 93.1719 350.961 93.5234 352.617 94.2266C354.273 94.9141 355.547 95.8828 356.438 97.1328C357.344 98.3672 357.797 99.7969 357.797 101.422H349.898C349.898 100.781 349.789 100.234 349.57 99.7812C349.367 99.3281 349.031 98.9844 348.562 98.75C348.094 98.5 347.469 98.375 346.688 98.375C346.141 98.375 345.641 98.4766 345.188 98.6797C344.75 98.8828 344.398 99.1641 344.133 99.5234C343.867 99.8828 343.734 100.305 343.734 100.789C343.734 101.133 343.812 101.445 343.969 101.727C344.141 101.992 344.398 102.242 344.742 102.477C345.086 102.695 345.523 102.898 346.055 103.086C346.586 103.258 347.227 103.414 347.977 103.555C349.68 103.867 351.273 104.312 352.758 104.891C354.242 105.469 355.445 106.289 356.367 107.352C357.305 108.414 357.773 109.844 357.773 111.641C357.773 112.766 357.516 113.805 357 114.758C356.484 115.695 355.742 116.523 354.773 117.242C353.805 117.945 352.641 118.492 351.281 118.883C349.922 119.273 348.391 119.469 346.688 119.469C344.266 119.469 342.219 119.039 340.547 118.18C338.875 117.305 337.609 116.211 336.75 114.898C335.906 113.57 335.484 112.227 335.484 110.867H342.844C342.875 111.648 343.062 112.289 343.406 112.789C343.766 113.289 344.242 113.656 344.836 113.891C345.43 114.125 346.117 114.242 346.898 114.242C347.617 114.242 348.211 114.141 348.68 113.938C349.164 113.734 349.531 113.461 349.781 113.117C350.031 112.758 350.156 112.344 350.156 111.875Z" fill="black"/>
<path d="M1134 0H1348C1356.28 0 1363 6.71573 1363 15V148C1363 156.284 1356.28 163 1348 163H1134V0Z" fill="#1299F3"/>
<path fill-rule="evenodd" clip-rule="evenodd" d="M1219.98 53C1219.85 53 1219.73 53.0527 1219.64 53.1464C1219.55 53.2402 1219.5 53.3674 1219.5 53.5V109.5C1219.5 109.633 1219.55 109.76 1219.64 109.854C1219.73 109.947 1219.85 110 1219.98 110H1277.02C1277.15 110 1277.27 109.947 1277.36 109.854C1277.45 109.76 1277.5 109.633 1277.5 109.5V64C1277.5 63.8674 1277.45 63.7402 1277.36 63.6464C1277.27 63.5527 1277.15 63.5 1277.02 63.5H1248.5C1247.65 63.5 1246.84 63.1045 1246.29 62.4206L1238.77 53H1219.98ZM1215.58 48.9038C1216.74 47.6848 1218.33 47 1219.98 47H1240.11C1240.97 47 1241.77 47.3955 1242.32 48.0794L1249.85 57.5H1277.02C1278.67 57.5 1280.26 58.1848 1281.42 59.4038C1282.59 60.6228 1283.25 62.2761 1283.25 64V109.5C1283.25 111.224 1282.59 112.877 1281.42 114.096C1280.26 115.315 1278.67 116 1277.02 116H1219.98C1218.33 116 1216.74 115.315 1215.58 114.096C1214.41 112.877 1213.75 111.224 1213.75 109.5V53.5C1213.75 51.7761 1214.41 50.1228 1215.58 48.9038Z" fill="white"/>
<path fill-rule="evenodd" clip-rule="evenodd" d="M1244.16 75.5251C1245.47 76.892 1245.47 79.108 1244.16 80.4749L1238.15 86.75L1244.16 93.0251C1245.47 94.392 1245.47 96.608 1244.16 97.9749C1242.85 99.3417 1240.73 99.3417 1239.42 97.9749L1231.03 89.2249C1229.72 87.858 1229.72 85.642 1231.03 84.2751L1239.42 75.5251C1240.73 74.1583 1242.85 74.1583 1244.16 75.5251Z" fill="white"/>
<path fill-rule="evenodd" clip-rule="evenodd" d="M1252.12 97.9749C1250.81 96.608 1250.81 94.392 1252.12 93.0251L1258.13 86.75L1252.12 80.4749C1250.81 79.108 1250.81 76.892 1252.12 75.5251C1253.43 74.1583 1255.55 74.1583 1256.86 75.5251L1265.25 84.2751C1266.56 85.642 1266.56 87.858 1265.25 89.2249L1256.86 97.9749C1255.55 99.3417 1253.43 99.3417 1252.12 97.9749Z" fill="white"/>
</svg>
