<svg width="1363" height="163" viewBox="0 0 1363 163" fill="none" xmlns="http://www.w3.org/2000/svg">
<path d="M0 15C0 6.71573 6.71573 0 15 0H37V163H15C6.71573 163 0 156.284 0 148V15Z" fill="#424242"/>
<rect width="1097" height="163" transform="translate(37)" fill="#F0F0F0"/>
<path d="M101.906 53.9219L94.3945 51.2383V48.0859L104.602 52.375V54.6367L101.906 53.9219ZM94.3945 56.1719L101.918 53.4297L104.602 52.7852V55.0352L94.3945 59.3242V56.1719ZM118.137 61H114.422L114.445 58.2578H118.137C119.059 58.2578 119.836 58.0508 120.469 57.6367C121.102 57.2148 121.578 56.6016 121.898 55.7969C122.227 54.9922 122.391 54.0195 122.391 52.8789V52.0469C122.391 51.1719 122.297 50.4023 122.109 49.7383C121.93 49.0742 121.66 48.5156 121.301 48.0625C120.941 47.6094 120.5 47.2695 119.977 47.043C119.453 46.8086 118.852 46.6914 118.172 46.6914H114.352V43.9375H118.172C119.312 43.9375 120.355 44.1328 121.301 44.5234C122.254 44.9062 123.078 45.457 123.773 46.1758C124.469 46.8945 125.004 47.7539 125.379 48.7539C125.762 49.7461 125.953 50.8516 125.953 52.0703V52.8789C125.953 54.0898 125.762 55.1953 125.379 56.1953C125.004 57.1953 124.469 58.0547 123.773 58.7734C123.086 59.4844 122.262 60.0352 121.301 60.4258C120.348 60.8086 119.293 61 118.137 61ZM116.414 43.9375V61H112.898V43.9375H116.414ZM131.672 51.0859V61H128.297V48.3203H131.473L131.672 51.0859ZM135.492 48.2383L135.434 51.3672C135.27 51.3438 135.07 51.3242 134.836 51.3086C134.609 51.2852 134.402 51.2734 134.215 51.2734C133.738 51.2734 133.324 51.3359 132.973 51.4609C132.629 51.5781 132.34 51.7539 132.105 51.9883C131.879 52.2227 131.707 52.5078 131.59 52.8438C131.48 53.1797 131.418 53.5625 131.402 53.9922L130.723 53.7812C130.723 52.9609 130.805 52.207 130.969 51.5195C131.133 50.8242 131.371 50.2188 131.684 49.7031C132.004 49.1875 132.395 48.7891 132.855 48.5078C133.316 48.2266 133.844 48.0859 134.438 48.0859C134.625 48.0859 134.816 48.1016 135.012 48.1328C135.207 48.1562 135.367 48.1914 135.492 48.2383ZM143.531 58.1406V52.4922C143.531 52.0859 143.465 51.7383 143.332 51.4492C143.199 51.1523 142.992 50.9219 142.711 50.7578C142.438 50.5938 142.082 50.5117 141.645 50.5117C141.27 50.5117 140.945 50.5781 140.672 50.7109C140.398 50.8359 140.188 51.0195 140.039 51.2617C139.891 51.4961 139.816 51.7734 139.816 52.0938H136.441C136.441 51.5547 136.566 51.043 136.816 50.5586C137.066 50.0742 137.43 49.6484 137.906 49.2812C138.383 48.9062 138.949 48.6133 139.605 48.4023C140.27 48.1914 141.012 48.0859 141.832 48.0859C142.816 48.0859 143.691 48.25 144.457 48.5781C145.223 48.9062 145.824 49.3984 146.262 50.0547C146.707 50.7109 146.93 51.5312 146.93 52.5156V57.9414C146.93 58.6367 146.973 59.207 147.059 59.6523C147.145 60.0898 147.27 60.4727 147.434 60.8008V61H144.023C143.859 60.6562 143.734 60.2266 143.648 59.7109C143.57 59.1875 143.531 58.6641 143.531 58.1406ZM143.977 53.2773L144 55.1875H142.113C141.668 55.1875 141.281 55.2383 140.953 55.3398C140.625 55.4414 140.355 55.5859 140.145 55.7734C139.934 55.9531 139.777 56.1641 139.676 56.4062C139.582 56.6484 139.535 56.9141 139.535 57.2031C139.535 57.4922 139.602 57.7539 139.734 57.9883C139.867 58.2148 140.059 58.3945 140.309 58.5273C140.559 58.6523 140.852 58.7148 141.188 58.7148C141.695 58.7148 142.137 58.6133 142.512 58.4102C142.887 58.207 143.176 57.957 143.379 57.6602C143.59 57.3633 143.699 57.082 143.707 56.8164L144.598 58.2461C144.473 58.5664 144.301 58.8984 144.082 59.2422C143.871 59.5859 143.602 59.9102 143.273 60.2148C142.945 60.5117 142.551 60.7578 142.09 60.9531C141.629 61.1406 141.082 61.2344 140.449 61.2344C139.645 61.2344 138.914 61.0742 138.258 60.7539C137.609 60.4258 137.094 59.9766 136.711 59.4062C136.336 58.8281 136.148 58.1719 136.148 57.4375C136.148 56.7734 136.273 56.1836 136.523 55.668C136.773 55.1523 137.141 54.7188 137.625 54.3672C138.117 54.0078 138.73 53.7383 139.465 53.5586C140.199 53.3711 141.051 53.2773 142.02 53.2773H143.977ZM157.559 48.3203H160.617V60.5781C160.617 61.7344 160.359 62.7148 159.844 63.5195C159.336 64.332 158.625 64.9453 157.711 65.3594C156.797 65.7812 155.734 65.9922 154.523 65.9922C153.992 65.9922 153.43 65.9219 152.836 65.7812C152.25 65.6406 151.688 65.4219 151.148 65.125C150.617 64.8281 150.172 64.4531 149.812 64L151.301 62.0078C151.691 62.4609 152.145 62.8125 152.66 63.0625C153.176 63.3203 153.746 63.4492 154.371 63.4492C154.98 63.4492 155.496 63.3359 155.918 63.1094C156.34 62.8906 156.664 62.5664 156.891 62.1367C157.117 61.7148 157.23 61.2031 157.23 60.6016V51.25L157.559 48.3203ZM149.027 54.8125V54.5664C149.027 53.5977 149.145 52.7188 149.379 51.9297C149.621 51.1328 149.961 50.4492 150.398 49.8789C150.844 49.3086 151.383 48.8672 152.016 48.5547C152.648 48.2422 153.363 48.0859 154.16 48.0859C155.004 48.0859 155.711 48.2422 156.281 48.5547C156.852 48.8672 157.32 49.3125 157.688 49.8906C158.055 50.4609 158.34 51.1367 158.543 51.918C158.754 52.6914 158.918 53.5391 159.035 54.4609V55C158.918 55.8828 158.742 56.7031 158.508 57.4609C158.273 58.2188 157.965 58.8828 157.582 59.4531C157.199 60.0156 156.723 60.4531 156.152 60.7656C155.59 61.0781 154.918 61.2344 154.137 61.2344C153.355 61.2344 152.648 61.0742 152.016 60.7539C151.391 60.4336 150.855 59.9844 150.41 59.4062C149.965 58.8281 149.621 58.1484 149.379 57.3672C149.145 56.5859 149.027 55.7344 149.027 54.8125ZM152.402 54.5664V54.8125C152.402 55.3359 152.453 55.8242 152.555 56.2773C152.656 56.7305 152.812 57.1328 153.023 57.4844C153.242 57.8281 153.512 58.0977 153.832 58.293C154.16 58.4805 154.547 58.5742 154.992 58.5742C155.609 58.5742 156.113 58.4453 156.504 58.1875C156.895 57.9219 157.188 57.5586 157.383 57.0977C157.578 56.6367 157.691 56.1055 157.723 55.5039V53.9688C157.707 53.4766 157.641 53.0352 157.523 52.6445C157.406 52.2461 157.242 51.9062 157.031 51.625C156.82 51.3438 156.547 51.125 156.211 50.9688C155.875 50.8125 155.477 50.7344 155.016 50.7344C154.57 50.7344 154.184 50.8359 153.855 51.0391C153.535 51.2344 153.266 51.5039 153.047 51.8477C152.836 52.1914 152.676 52.5977 152.566 53.0664C152.457 53.5273 152.402 54.0273 152.402 54.5664ZM171.902 51.8711L175.184 49.75C175.668 49.4297 175.992 49.1211 176.156 48.8242C176.32 48.5273 176.402 48.1953 176.402 47.8281C176.402 47.4609 176.266 47.1211 175.992 46.8086C175.719 46.4883 175.336 46.3281 174.844 46.3281C174.492 46.3281 174.195 46.4102 173.953 46.5742C173.711 46.7305 173.527 46.9414 173.402 47.207C173.285 47.4727 173.227 47.7695 173.227 48.0977C173.227 48.4492 173.32 48.8086 173.508 49.1758C173.695 49.5352 173.949 49.918 174.27 50.3242C174.59 50.7227 174.945 51.1562 175.336 51.625L183.387 61H179.555L172.992 53.4062C172.438 52.7188 171.953 52.0898 171.539 51.5195C171.125 50.9414 170.801 50.3789 170.566 49.832C170.332 49.2852 170.215 48.7227 170.215 48.1445C170.215 47.2539 170.406 46.4766 170.789 45.8125C171.172 45.1406 171.711 44.6211 172.406 44.2539C173.102 43.8789 173.918 43.6914 174.855 43.6914C175.738 43.6914 176.504 43.875 177.152 44.2422C177.801 44.6016 178.301 45.0781 178.652 45.6719C179.012 46.2656 179.191 46.918 179.191 47.6289C179.191 48.1602 179.094 48.6523 178.898 49.1055C178.703 49.5508 178.434 49.9648 178.09 50.3477C177.746 50.7227 177.352 51.0703 176.906 51.3906L173.168 54.0508C172.879 54.3164 172.66 54.5781 172.512 54.8359C172.363 55.0938 172.262 55.3398 172.207 55.5742C172.152 55.8008 172.125 56.0195 172.125 56.2305C172.125 56.6836 172.223 57.0898 172.418 57.4492C172.613 57.8086 172.887 58.0898 173.238 58.293C173.59 58.4961 174 58.5977 174.469 58.5977C175.109 58.5977 175.73 58.457 176.332 58.1758C176.934 57.8945 177.473 57.4922 177.949 56.9688C178.426 56.4375 178.805 55.8086 179.086 55.082C179.367 54.3555 179.508 53.5547 179.508 52.6797H182.367C182.367 53.5547 182.281 54.3867 182.109 55.1758C181.938 55.957 181.66 56.6836 181.277 57.3555C180.895 58.0195 180.387 58.6094 179.754 59.125C179.707 59.1641 179.641 59.2227 179.555 59.3008C179.477 59.3711 179.41 59.4258 179.355 59.4648C178.605 60.0664 177.824 60.5156 177.012 60.8125C176.199 61.1016 175.293 61.2461 174.293 61.2461C173.152 61.2461 172.164 61.0391 171.328 60.625C170.5 60.2109 169.859 59.6406 169.406 58.9141C168.961 58.1875 168.738 57.3555 168.738 56.418C168.738 55.7305 168.871 55.1328 169.137 54.625C169.41 54.1094 169.785 53.6328 170.262 53.1953C170.738 52.7578 171.285 52.3164 171.902 51.8711ZM202.582 50.8867V53.6289H193.676V50.8867H202.582ZM194.719 43.9375V61H191.203V43.9375H194.719ZM205.09 43.9375V61H201.586V43.9375H205.09ZM207.398 54.7891V54.543C207.398 53.6133 207.531 52.7578 207.797 51.9766C208.062 51.1875 208.449 50.5039 208.957 49.9258C209.465 49.3477 210.09 48.8984 210.832 48.5781C211.574 48.25 212.426 48.0859 213.387 48.0859C214.348 48.0859 215.203 48.25 215.953 48.5781C216.703 48.8984 217.332 49.3477 217.84 49.9258C218.355 50.5039 218.746 51.1875 219.012 51.9766C219.277 52.7578 219.41 53.6133 219.41 54.543V54.7891C219.41 55.7109 219.277 56.5664 219.012 57.3555C218.746 58.1367 218.355 58.8203 217.84 59.4062C217.332 59.9844 216.707 60.4336 215.965 60.7539C215.223 61.0742 214.371 61.2344 213.41 61.2344C212.449 61.2344 211.594 61.0742 210.844 60.7539C210.102 60.4336 209.473 59.9844 208.957 59.4062C208.449 58.8203 208.062 58.1367 207.797 57.3555C207.531 56.5664 207.398 55.7109 207.398 54.7891ZM210.773 54.543V54.7891C210.773 55.3203 210.82 55.8164 210.914 56.2773C211.008 56.7383 211.156 57.1445 211.359 57.4961C211.57 57.8398 211.844 58.1094 212.18 58.3047C212.516 58.5 212.926 58.5977 213.41 58.5977C213.879 58.5977 214.281 58.5 214.617 58.3047C214.953 58.1094 215.223 57.8398 215.426 57.4961C215.629 57.1445 215.777 56.7383 215.871 56.2773C215.973 55.8164 216.023 55.3203 216.023 54.7891V54.543C216.023 54.0273 215.973 53.543 215.871 53.0898C215.777 52.6289 215.625 52.2227 215.414 51.8711C215.211 51.5117 214.941 51.2305 214.605 51.0273C214.27 50.8242 213.863 50.7227 213.387 50.7227C212.91 50.7227 212.504 50.8242 212.168 51.0273C211.84 51.2305 211.57 51.5117 211.359 51.8711C211.156 52.2227 211.008 52.6289 210.914 53.0898C210.82 53.543 210.773 54.0273 210.773 54.543ZM228.34 57.4961C228.34 57.2539 228.27 57.0352 228.129 56.8398C227.988 56.6445 227.727 56.4648 227.344 56.3008C226.969 56.1289 226.426 55.9727 225.715 55.832C225.074 55.6914 224.477 55.5156 223.922 55.3047C223.375 55.0859 222.898 54.8242 222.492 54.5195C222.094 54.2148 221.781 53.8555 221.555 53.4414C221.328 53.0195 221.215 52.5391 221.215 52C221.215 51.4688 221.328 50.9688 221.555 50.5C221.789 50.0312 222.121 49.6172 222.551 49.2578C222.988 48.8906 223.52 48.6055 224.145 48.4023C224.777 48.1914 225.488 48.0859 226.277 48.0859C227.379 48.0859 228.324 48.2617 229.113 48.6133C229.91 48.9648 230.52 49.4492 230.941 50.0664C231.371 50.6758 231.586 51.3711 231.586 52.1523H228.211C228.211 51.8242 228.141 51.5312 228 51.2734C227.867 51.0078 227.656 50.8008 227.367 50.6523C227.086 50.4961 226.719 50.418 226.266 50.418C225.891 50.418 225.566 50.4844 225.293 50.6172C225.02 50.7422 224.809 50.9141 224.66 51.1328C224.52 51.3438 224.449 51.5781 224.449 51.8359C224.449 52.0312 224.488 52.207 224.566 52.3633C224.652 52.5117 224.789 52.6484 224.977 52.7734C225.164 52.8984 225.406 53.0156 225.703 53.125C226.008 53.2266 226.383 53.3203 226.828 53.4062C227.742 53.5938 228.559 53.8398 229.277 54.1445C229.996 54.4414 230.566 54.8477 230.988 55.3633C231.41 55.8711 231.621 56.5391 231.621 57.3672C231.621 57.9297 231.496 58.4453 231.246 58.9141C230.996 59.3828 230.637 59.793 230.168 60.1445C229.699 60.4883 229.137 60.7578 228.48 60.9531C227.832 61.1406 227.102 61.2344 226.289 61.2344C225.109 61.2344 224.109 61.0234 223.289 60.6016C222.477 60.1797 221.859 59.6445 221.438 58.9961C221.023 58.3398 220.816 57.668 220.816 56.9805H224.016C224.031 57.4414 224.148 57.8125 224.367 58.0938C224.594 58.375 224.879 58.5781 225.223 58.7031C225.574 58.8281 225.953 58.8906 226.359 58.8906C226.797 58.8906 227.16 58.832 227.449 58.7148C227.738 58.5898 227.957 58.4258 228.105 58.2227C228.262 58.0117 228.34 57.7695 228.34 57.4961ZM240.023 48.3203V50.7109H232.641V48.3203H240.023ZM234.469 45.1914H237.844V57.1797C237.844 57.5469 237.891 57.8281 237.984 58.0234C238.086 58.2188 238.234 58.3555 238.43 58.4336C238.625 58.5039 238.871 58.5391 239.168 58.5391C239.379 58.5391 239.566 58.5312 239.73 58.5156C239.902 58.4922 240.047 58.4688 240.164 58.4453L240.176 60.9297C239.887 61.0234 239.574 61.0977 239.238 61.1523C238.902 61.207 238.531 61.2344 238.125 61.2344C237.383 61.2344 236.734 61.1133 236.18 60.8711C235.633 60.6211 235.211 60.2227 234.914 59.6758C234.617 59.1289 234.469 58.4102 234.469 57.5195V45.1914Z" fill="#888888"/>
<path d="M104.344 84.875V119H96.1406V84.875H104.344ZM117.727 99.0078V119H109.828V93.6406H117.234L117.727 99.0078ZM116.766 105.453L114.961 105.5C114.961 103.719 115.172 102.078 115.594 100.578C116.016 99.0781 116.641 97.7734 117.469 96.6641C118.297 95.5547 119.312 94.6953 120.516 94.0859C121.734 93.4766 123.141 93.1719 124.734 93.1719C125.844 93.1719 126.852 93.3438 127.758 93.6875C128.664 94.0156 129.445 94.5391 130.102 95.2578C130.758 95.9609 131.258 96.8828 131.602 98.0234C131.961 99.1484 132.141 100.5 132.141 102.078V119H124.242V103.086C124.242 102.008 124.117 101.195 123.867 100.648C123.633 100.102 123.289 99.7344 122.836 99.5469C122.383 99.3594 121.828 99.2656 121.172 99.2656C120.484 99.2656 119.867 99.4219 119.32 99.7344C118.773 100.047 118.305 100.484 117.914 101.047C117.539 101.594 117.25 102.242 117.047 102.992C116.859 103.742 116.766 104.562 116.766 105.453ZM131.25 105.453L129.047 105.5C129.047 103.719 129.242 102.078 129.633 100.578C130.039 99.0781 130.641 97.7734 131.438 96.6641C132.25 95.5547 133.258 94.6953 134.461 94.0859C135.664 93.4766 137.062 93.1719 138.656 93.1719C139.812 93.1719 140.875 93.3438 141.844 93.6875C142.812 94.0312 143.648 94.5859 144.352 95.3516C145.055 96.1172 145.602 97.1328 145.992 98.3984C146.383 99.6484 146.578 101.195 146.578 103.039V119H138.656V103.039C138.656 101.992 138.531 101.203 138.281 100.672C138.047 100.125 137.703 99.7578 137.25 99.5703C136.797 99.3672 136.258 99.2656 135.633 99.2656C134.883 99.2656 134.234 99.4219 133.688 99.7344C133.141 100.047 132.68 100.484 132.305 101.047C131.945 101.594 131.68 102.242 131.508 102.992C131.336 103.742 131.25 104.562 131.25 105.453ZM159.07 98.5156V128.75H151.172V93.6406H158.531L159.07 98.5156ZM174.633 106.016V106.508C174.633 108.352 174.422 110.062 174 111.641C173.578 113.219 172.953 114.594 172.125 115.766C171.297 116.938 170.266 117.852 169.031 118.508C167.812 119.148 166.398 119.469 164.789 119.469C163.273 119.469 161.969 119.133 160.875 118.461C159.781 117.789 158.867 116.859 158.133 115.672C157.398 114.484 156.805 113.125 156.352 111.594C155.898 110.062 155.539 108.445 155.273 106.742V106.109C155.539 104.281 155.898 102.586 156.352 101.023C156.805 99.4453 157.398 98.0703 158.133 96.8984C158.867 95.7266 159.773 94.8125 160.852 94.1562C161.945 93.5 163.25 93.1719 164.766 93.1719C166.375 93.1719 167.789 93.4766 169.008 94.0859C170.242 94.6953 171.273 95.5703 172.102 96.7109C172.945 97.8359 173.578 99.1875 174 100.766C174.422 102.344 174.633 104.094 174.633 106.016ZM166.734 106.508V106.016C166.734 105.031 166.664 104.133 166.523 103.32C166.383 102.492 166.156 101.773 165.844 101.164C165.547 100.555 165.148 100.086 164.648 99.7578C164.148 99.4297 163.531 99.2656 162.797 99.2656C161.953 99.2656 161.242 99.3984 160.664 99.6641C160.102 99.9141 159.648 100.305 159.305 100.836C158.977 101.352 158.742 102 158.602 102.781C158.477 103.547 158.422 104.445 158.438 105.477V107.398C158.406 108.586 158.523 109.633 158.789 110.539C159.055 111.43 159.516 112.125 160.172 112.625C160.828 113.125 161.719 113.375 162.844 113.375C163.594 113.375 164.219 113.203 164.719 112.859C165.219 112.5 165.617 112.008 165.914 111.383C166.211 110.742 166.422 110.008 166.547 109.18C166.672 108.352 166.734 107.461 166.734 106.508ZM186.492 83V119H178.57V83H186.492ZM203.648 119.469C201.586 119.469 199.742 119.148 198.117 118.508C196.492 117.852 195.117 116.953 193.992 115.812C192.883 114.672 192.031 113.359 191.438 111.875C190.859 110.391 190.57 108.82 190.57 107.164V106.273C190.57 104.414 190.828 102.695 191.344 101.117C191.859 99.5234 192.625 98.1328 193.641 96.9453C194.656 95.7578 195.93 94.8359 197.461 94.1797C198.992 93.5078 200.773 93.1719 202.805 93.1719C204.602 93.1719 206.211 93.4609 207.633 94.0391C209.055 94.6172 210.258 95.4453 211.242 96.5234C212.242 97.6016 213 98.9062 213.516 100.438C214.047 101.969 214.312 103.688 214.312 105.594V108.805H193.594V103.859H206.602V103.25C206.617 102.406 206.469 101.688 206.156 101.094C205.859 100.5 205.422 100.047 204.844 99.7344C204.266 99.4219 203.562 99.2656 202.734 99.2656C201.875 99.2656 201.164 99.4531 200.602 99.8281C200.055 100.203 199.625 100.719 199.312 101.375C199.016 102.016 198.805 102.758 198.68 103.602C198.555 104.445 198.492 105.336 198.492 106.273V107.164C198.492 108.102 198.617 108.953 198.867 109.719C199.133 110.484 199.508 111.141 199.992 111.688C200.492 112.219 201.086 112.633 201.773 112.93C202.477 113.227 203.273 113.375 204.164 113.375C205.242 113.375 206.305 113.172 207.352 112.766C208.398 112.359 209.297 111.688 210.047 110.75L213.633 115.016C213.117 115.75 212.383 116.461 211.43 117.148C210.492 117.836 209.367 118.398 208.055 118.836C206.742 119.258 205.273 119.469 203.648 119.469ZM225.492 99.0078V119H217.594V93.6406H225L225.492 99.0078ZM224.531 105.453L222.727 105.5C222.727 103.719 222.938 102.078 223.359 100.578C223.781 99.0781 224.406 97.7734 225.234 96.6641C226.062 95.5547 227.078 94.6953 228.281 94.0859C229.5 93.4766 230.906 93.1719 232.5 93.1719C233.609 93.1719 234.617 93.3438 235.523 93.6875C236.43 94.0156 237.211 94.5391 237.867 95.2578C238.523 95.9609 239.023 96.8828 239.367 98.0234C239.727 99.1484 239.906 100.5 239.906 102.078V119H232.008V103.086C232.008 102.008 231.883 101.195 231.633 100.648C231.398 100.102 231.055 99.7344 230.602 99.5469C230.148 99.3594 229.594 99.2656 228.938 99.2656C228.25 99.2656 227.633 99.4219 227.086 99.7344C226.539 100.047 226.07 100.484 225.68 101.047C225.305 101.594 225.016 102.242 224.812 102.992C224.625 103.742 224.531 104.562 224.531 105.453ZM239.016 105.453L236.812 105.5C236.812 103.719 237.008 102.078 237.398 100.578C237.805 99.0781 238.406 97.7734 239.203 96.6641C240.016 95.5547 241.023 94.6953 242.227 94.0859C243.43 93.4766 244.828 93.1719 246.422 93.1719C247.578 93.1719 248.641 93.3438 249.609 93.6875C250.578 94.0312 251.414 94.5859 252.117 95.3516C252.82 96.1172 253.367 97.1328 253.758 98.3984C254.148 99.6484 254.344 101.195 254.344 103.039V119H246.422V103.039C246.422 101.992 246.297 101.203 246.047 100.672C245.812 100.125 245.469 99.7578 245.016 99.5703C244.562 99.3672 244.023 99.2656 243.398 99.2656C242.648 99.2656 242 99.4219 241.453 99.7344C240.906 100.047 240.445 100.484 240.07 101.047C239.711 101.594 239.445 102.242 239.273 102.992C239.102 103.742 239.016 104.562 239.016 105.453ZM271.148 119.469C269.086 119.469 267.242 119.148 265.617 118.508C263.992 117.852 262.617 116.953 261.492 115.812C260.383 114.672 259.531 113.359 258.938 111.875C258.359 110.391 258.07 108.82 258.07 107.164V106.273C258.07 104.414 258.328 102.695 258.844 101.117C259.359 99.5234 260.125 98.1328 261.141 96.9453C262.156 95.7578 263.43 94.8359 264.961 94.1797C266.492 93.5078 268.273 93.1719 270.305 93.1719C272.102 93.1719 273.711 93.4609 275.133 94.0391C276.555 94.6172 277.758 95.4453 278.742 96.5234C279.742 97.6016 280.5 98.9062 281.016 100.438C281.547 101.969 281.812 103.688 281.812 105.594V108.805H261.094V103.859H274.102V103.25C274.117 102.406 273.969 101.688 273.656 101.094C273.359 100.5 272.922 100.047 272.344 99.7344C271.766 99.4219 271.062 99.2656 270.234 99.2656C269.375 99.2656 268.664 99.4531 268.102 99.8281C267.555 100.203 267.125 100.719 266.812 101.375C266.516 102.016 266.305 102.758 266.18 103.602C266.055 104.445 265.992 105.336 265.992 106.273V107.164C265.992 108.102 266.117 108.953 266.367 109.719C266.633 110.484 267.008 111.141 267.492 111.688C267.992 112.219 268.586 112.633 269.273 112.93C269.977 113.227 270.773 113.375 271.664 113.375C272.742 113.375 273.805 113.172 274.852 112.766C275.898 112.359 276.797 111.688 277.547 110.75L281.133 115.016C280.617 115.75 279.883 116.461 278.93 117.148C277.992 117.836 276.867 118.398 275.555 118.836C274.242 119.258 272.773 119.469 271.148 119.469ZM292.781 99.0547V119H284.883V93.6406H292.289L292.781 99.0547ZM291.844 105.453L289.992 105.5C289.992 103.562 290.227 101.836 290.695 100.32C291.164 98.7891 291.828 97.4922 292.688 96.4297C293.547 95.3672 294.57 94.5625 295.758 94.0156C296.961 93.4531 298.297 93.1719 299.766 93.1719C300.938 93.1719 302.008 93.3438 302.977 93.6875C303.961 94.0312 304.805 94.5859 305.508 95.3516C306.227 96.1172 306.773 97.1328 307.148 98.3984C307.539 99.6484 307.734 101.195 307.734 103.039V119H299.789V103.016C299.789 102 299.648 101.227 299.367 100.695C299.086 100.148 298.68 99.7734 298.148 99.5703C297.617 99.3672 296.969 99.2656 296.203 99.2656C295.391 99.2656 294.703 99.4219 294.141 99.7344C293.578 100.047 293.125 100.484 292.781 101.047C292.453 101.594 292.211 102.242 292.055 102.992C291.914 103.742 291.844 104.562 291.844 105.453ZM325.477 93.6406V99.125H310.195V93.6406H325.477ZM313.406 87.3359H321.305V110.727C321.305 111.398 321.383 111.922 321.539 112.297C321.695 112.656 321.961 112.914 322.336 113.07C322.727 113.211 323.242 113.281 323.883 113.281C324.336 113.281 324.711 113.273 325.008 113.258C325.305 113.227 325.586 113.188 325.852 113.141V118.789C325.18 119.008 324.477 119.172 323.742 119.281C323.008 119.406 322.227 119.469 321.398 119.469C319.711 119.469 318.266 119.203 317.062 118.672C315.875 118.141 314.969 117.305 314.344 116.164C313.719 115.023 313.406 113.539 313.406 111.711V87.3359ZM341.789 112.625V102.172C341.789 101.453 341.688 100.836 341.484 100.32C341.281 99.8047 340.961 99.4062 340.523 99.125C340.086 98.8281 339.5 98.6797 338.766 98.6797C338.172 98.6797 337.664 98.7812 337.242 98.9844C336.82 99.1875 336.5 99.4922 336.281 99.8984C336.062 100.305 335.953 100.82 335.953 101.445H328.055C328.055 100.273 328.312 99.1875 328.828 98.1875C329.359 97.1719 330.109 96.2891 331.078 95.5391C332.062 94.7891 333.234 94.2109 334.594 93.8047C335.969 93.3828 337.5 93.1719 339.188 93.1719C341.203 93.1719 343 93.5078 344.578 94.1797C346.172 94.8516 347.43 95.8594 348.352 97.2031C349.273 98.5312 349.734 100.203 349.734 102.219V112.602C349.734 114.258 349.828 115.516 350.016 116.375C350.203 117.219 350.469 117.961 350.812 118.602V119H342.891C342.516 118.219 342.234 117.266 342.047 116.141C341.875 115 341.789 113.828 341.789 112.625ZM342.75 103.508L342.797 107.727H339.305C338.57 107.727 337.945 107.828 337.43 108.031C336.93 108.234 336.523 108.516 336.211 108.875C335.914 109.219 335.695 109.609 335.555 110.047C335.43 110.484 335.367 110.945 335.367 111.43C335.367 111.898 335.477 112.32 335.695 112.695C335.93 113.055 336.242 113.336 336.633 113.539C337.023 113.742 337.461 113.844 337.945 113.844C338.82 113.844 339.562 113.68 340.172 113.352C340.797 113.008 341.273 112.594 341.602 112.109C341.93 111.625 342.094 111.172 342.094 110.75L343.828 113.984C343.516 114.609 343.156 115.242 342.75 115.883C342.359 116.523 341.867 117.117 341.273 117.664C340.695 118.195 339.984 118.633 339.141 118.977C338.297 119.305 337.273 119.469 336.07 119.469C334.508 119.469 333.07 119.148 331.758 118.508C330.461 117.867 329.422 116.977 328.641 115.836C327.859 114.68 327.469 113.352 327.469 111.852C327.469 110.539 327.703 109.367 328.172 108.336C328.656 107.305 329.383 106.43 330.352 105.711C331.32 104.992 332.555 104.445 334.055 104.07C335.555 103.695 337.32 103.508 339.352 103.508H342.75ZM367.477 93.6406V99.125H352.195V93.6406H367.477ZM355.406 87.3359H363.305V110.727C363.305 111.398 363.383 111.922 363.539 112.297C363.695 112.656 363.961 112.914 364.336 113.07C364.727 113.211 365.242 113.281 365.883 113.281C366.336 113.281 366.711 113.273 367.008 113.258C367.305 113.227 367.586 113.188 367.852 113.141V118.789C367.18 119.008 366.477 119.172 365.742 119.281C365.008 119.406 364.227 119.469 363.398 119.469C361.711 119.469 360.266 119.203 359.062 118.672C357.875 118.141 356.969 117.305 356.344 116.164C355.719 115.023 355.406 113.539 355.406 111.711V87.3359ZM378.961 93.6406V119H371.039V93.6406H378.961ZM370.57 87.1016C370.57 85.9766 370.977 85.0547 371.789 84.3359C372.602 83.6172 373.656 83.2578 374.953 83.2578C376.25 83.2578 377.305 83.6172 378.117 84.3359C378.93 85.0547 379.336 85.9766 379.336 87.1016C379.336 88.2266 378.93 89.1484 378.117 89.8672C377.305 90.5859 376.25 90.9453 374.953 90.9453C373.656 90.9453 372.602 90.5859 371.789 89.8672C370.977 89.1484 370.57 88.2266 370.57 87.1016ZM382.852 106.578V106.086C382.852 104.227 383.117 102.516 383.648 100.953C384.18 99.375 384.961 98.0078 385.992 96.8516C387.023 95.6953 388.297 94.7969 389.812 94.1562C391.328 93.5 393.078 93.1719 395.062 93.1719C397.062 93.1719 398.82 93.5 400.336 94.1562C401.867 94.7969 403.148 95.6953 404.18 96.8516C405.211 98.0078 405.992 99.375 406.523 100.953C407.055 102.516 407.32 104.227 407.32 106.086V106.578C407.32 108.422 407.055 110.133 406.523 111.711C405.992 113.273 405.211 114.641 404.18 115.812C403.148 116.969 401.875 117.867 400.359 118.508C398.844 119.148 397.094 119.469 395.109 119.469C393.125 119.469 391.367 119.148 389.836 118.508C388.305 117.867 387.023 116.969 385.992 115.812C384.961 114.641 384.18 113.273 383.648 111.711C383.117 110.133 382.852 108.422 382.852 106.578ZM390.75 106.086V106.578C390.75 107.531 390.82 108.422 390.961 109.25C391.102 110.078 391.336 110.805 391.664 111.43C391.992 112.039 392.438 112.516 393 112.859C393.562 113.203 394.266 113.375 395.109 113.375C395.938 113.375 396.625 113.203 397.172 112.859C397.734 112.516 398.18 112.039 398.508 111.43C398.836 110.805 399.07 110.078 399.211 109.25C399.352 108.422 399.422 107.531 399.422 106.578V106.086C399.422 105.164 399.352 104.297 399.211 103.484C399.07 102.656 398.836 101.93 398.508 101.305C398.18 100.664 397.734 100.164 397.172 99.8047C396.609 99.4453 395.906 99.2656 395.062 99.2656C394.234 99.2656 393.539 99.4453 392.977 99.8047C392.43 100.164 391.992 100.664 391.664 101.305C391.336 101.93 391.102 102.656 390.961 103.484C390.82 104.297 390.75 105.164 390.75 106.086ZM418.594 99.0547V119H410.695V93.6406H418.102L418.594 99.0547ZM417.656 105.453L415.805 105.5C415.805 103.562 416.039 101.836 416.508 100.32C416.977 98.7891 417.641 97.4922 418.5 96.4297C419.359 95.3672 420.383 94.5625 421.57 94.0156C422.773 93.4531 424.109 93.1719 425.578 93.1719C426.75 93.1719 427.82 93.3438 428.789 93.6875C429.773 94.0312 430.617 94.5859 431.32 95.3516C432.039 96.1172 432.586 97.1328 432.961 98.3984C433.352 99.6484 433.547 101.195 433.547 103.039V119H425.602V103.016C425.602 102 425.461 101.227 425.18 100.695C424.898 100.148 424.492 99.7734 423.961 99.5703C423.43 99.3672 422.781 99.2656 422.016 99.2656C421.203 99.2656 420.516 99.4219 419.953 99.7344C419.391 100.047 418.938 100.484 418.594 101.047C418.266 101.594 418.023 102.242 417.867 102.992C417.727 103.742 417.656 104.562 417.656 105.453Z" fill="black"/>
<path d="M1134 0H1348C1356.28 0 1363 6.71573 1363 15V148C1363 156.284 1356.28 163 1348 163H1134V0Z" fill="#1299F3"/>
<path d="M1280.07 47.5H1216.93L1214.5 49.9286V113.071L1216.93 115.5H1280.07L1282.5 113.071V49.9286L1280.07 47.5ZM1277.64 110.643H1233.93V100.929H1245.1C1246.56 103.843 1249.96 105.786 1253.36 105.786C1258.7 105.786 1263.07 101.414 1263.07 96.0714C1263.07 90.7286 1258.7 86.3571 1253.36 86.3571C1248.01 86.3571 1243.64 90.7286 1243.64 96.0714H1229.07V110.643H1219.36V52.3571H1229.07V63.5286C1226.16 64.9857 1224.21 68.3857 1224.21 71.7857C1224.21 77.1286 1228.59 81.5 1233.93 81.5C1239.27 81.5 1243.64 77.1286 1243.64 71.7857H1253.36C1253.36 77.1286 1257.73 81.5 1263.07 81.5C1268.41 81.5 1272.79 77.1286 1272.79 71.7857C1272.79 66.4429 1268.41 62.0714 1263.07 62.0714C1259.67 62.0714 1256.27 64.0143 1254.81 66.9286H1242.19C1240.73 64.0143 1237.33 62.0714 1233.93 62.0714V52.3571H1277.64V110.643ZM1248.5 96.0714C1248.5 93.1571 1250.44 91.2143 1253.36 91.2143C1256.27 91.2143 1258.21 93.1571 1258.21 96.0714C1258.21 98.9857 1256.27 100.929 1253.36 100.929C1250.44 100.929 1248.5 98.9857 1248.5 96.0714ZM1233.93 66.9286C1236.84 66.9286 1238.79 68.8714 1238.79 71.7857C1238.79 74.7 1236.84 76.6429 1233.93 76.6429C1231.01 76.6429 1229.07 74.7 1229.07 71.7857C1229.07 68.8714 1231.01 66.9286 1233.93 66.9286ZM1263.07 66.9286C1265.99 66.9286 1267.93 68.8714 1267.93 71.7857C1267.93 74.7 1265.99 76.6429 1263.07 76.6429C1260.16 76.6429 1258.21 74.7 1258.21 71.7857C1258.21 68.8714 1260.16 66.9286 1263.07 66.9286Z" fill="white"/>
</svg>
