<svg width="1363" height="163" viewBox="0 0 1363 163" fill="none" xmlns="http://www.w3.org/2000/svg">
<path d="M0 15C0 6.71573 6.71573 0 15 0H37V163H15C6.71573 163 0 156.284 0 148V15Z" fill="#424242"/>
<rect width="1097" height="163" transform="translate(37)" fill="#F0F0F0"/>
<path d="M101.906 53.9219L94.3945 51.2383V48.0859L104.602 52.375V54.6367L101.906 53.9219ZM94.3945 56.1719L101.918 53.4297L104.602 52.7852V55.0352L94.3945 59.3242V56.1719ZM119.578 53.5117H115.195L115.172 51.0977H118.852C119.5 51.0977 120.031 51.0156 120.445 50.8516C120.859 50.6797 121.168 50.4336 121.371 50.1133C121.582 49.7852 121.688 49.3867 121.688 48.918C121.688 48.3867 121.586 47.957 121.383 47.6289C121.188 47.3008 120.879 47.0625 120.457 46.9141C120.043 46.7656 119.508 46.6914 118.852 46.6914H116.414V61H112.898V43.9375H118.852C119.844 43.9375 120.73 44.0312 121.512 44.2188C122.301 44.4062 122.969 44.6914 123.516 45.0742C124.062 45.457 124.48 45.9414 124.77 46.5273C125.059 47.1055 125.203 47.793 125.203 48.5898C125.203 49.293 125.043 49.9414 124.723 50.5352C124.41 51.1289 123.914 51.6133 123.234 51.9883C122.562 52.3633 121.684 52.5703 120.598 52.6094L119.578 53.5117ZM119.426 61H114.234L115.605 58.2578H119.426C120.043 58.2578 120.547 58.1602 120.938 57.9648C121.328 57.7617 121.617 57.4883 121.805 57.1445C121.992 56.8008 122.086 56.4062 122.086 55.9609C122.086 55.4609 122 55.0273 121.828 54.6602C121.664 54.293 121.398 54.0117 121.031 53.8164C120.664 53.6133 120.18 53.5117 119.578 53.5117H116.191L116.215 51.0977H120.434L121.242 52.0469C122.281 52.0312 123.117 52.2148 123.75 52.5977C124.391 52.9727 124.855 53.4609 125.145 54.0625C125.441 54.6641 125.59 55.3086 125.59 55.9961C125.59 57.0898 125.352 58.0117 124.875 58.7617C124.398 59.5039 123.699 60.0625 122.777 60.4375C121.863 60.8125 120.746 61 119.426 61ZM135.516 57.9648V48.3203H138.891V61H135.715L135.516 57.9648ZM135.891 55.3633L136.887 55.3398C136.887 56.1836 136.789 56.9688 136.594 57.6953C136.398 58.4141 136.105 59.0391 135.715 59.5703C135.324 60.0938 134.832 60.5039 134.238 60.8008C133.645 61.0898 132.945 61.2344 132.141 61.2344C131.523 61.2344 130.953 61.1484 130.43 60.9766C129.914 60.7969 129.469 60.5195 129.094 60.1445C128.727 59.7617 128.438 59.2734 128.227 58.6797C128.023 58.0781 127.922 57.3555 127.922 56.5117V48.3203H131.297V56.5352C131.297 56.9102 131.34 57.2266 131.426 57.4844C131.52 57.7422 131.648 57.9531 131.812 58.1172C131.977 58.2812 132.168 58.3984 132.387 58.4688C132.613 58.5391 132.863 58.5742 133.137 58.5742C133.832 58.5742 134.379 58.4336 134.777 58.1523C135.184 57.8711 135.469 57.4883 135.633 57.0039C135.805 56.5117 135.891 55.9648 135.891 55.3633ZM145.031 48.3203V61H141.645V48.3203H145.031ZM141.434 45.0156C141.434 44.5234 141.605 44.1172 141.949 43.7969C142.293 43.4766 142.754 43.3164 143.332 43.3164C143.902 43.3164 144.359 43.4766 144.703 43.7969C145.055 44.1172 145.23 44.5234 145.23 45.0156C145.23 45.5078 145.055 45.9141 144.703 46.2344C144.359 46.5547 143.902 46.7148 143.332 46.7148C142.754 46.7148 142.293 46.5547 141.949 46.2344C141.605 45.9141 141.434 45.5078 141.434 45.0156ZM151.383 43V61H147.996V43H151.383ZM161.66 58.2344V43H165.059V61H162L161.66 58.2344ZM153.645 54.8125V54.5664C153.645 53.5977 153.754 52.7188 153.973 51.9297C154.191 51.1328 154.512 50.4492 154.934 49.8789C155.355 49.3086 155.875 48.8672 156.492 48.5547C157.109 48.2422 157.812 48.0859 158.602 48.0859C159.344 48.0859 159.992 48.2422 160.547 48.5547C161.109 48.8672 161.586 49.3125 161.977 49.8906C162.375 50.4609 162.695 51.1367 162.938 51.918C163.18 52.6914 163.355 53.5391 163.465 54.4609V55C163.355 55.8828 163.18 56.7031 162.938 57.4609C162.695 58.2188 162.375 58.8828 161.977 59.4531C161.586 60.0156 161.109 60.4531 160.547 60.7656C159.984 61.0781 159.328 61.2344 158.578 61.2344C157.789 61.2344 157.086 61.0742 156.469 60.7539C155.859 60.4336 155.344 59.9844 154.922 59.4062C154.508 58.8281 154.191 58.1484 153.973 57.3672C153.754 56.5859 153.645 55.7344 153.645 54.8125ZM157.02 54.5664V54.8125C157.02 55.3359 157.059 55.8242 157.137 56.2773C157.223 56.7305 157.359 57.1328 157.547 57.4844C157.742 57.8281 157.992 58.0977 158.297 58.293C158.609 58.4805 158.988 58.5742 159.434 58.5742C160.012 58.5742 160.488 58.4453 160.863 58.1875C161.238 57.9219 161.523 57.5586 161.719 57.0977C161.922 56.6367 162.039 56.1055 162.07 55.5039V53.9688C162.047 53.4766 161.977 53.0352 161.859 52.6445C161.75 52.2461 161.586 51.9062 161.367 51.625C161.156 51.3438 160.891 51.125 160.57 50.9688C160.258 50.8125 159.887 50.7344 159.457 50.7344C159.02 50.7344 158.645 50.8359 158.332 51.0391C158.02 51.2344 157.766 51.5039 157.57 51.8477C157.383 52.1914 157.242 52.5977 157.148 53.0664C157.062 53.5273 157.02 54.0273 157.02 54.5664ZM176.355 51.8711L179.637 49.75C180.121 49.4297 180.445 49.1211 180.609 48.8242C180.773 48.5273 180.855 48.1953 180.855 47.8281C180.855 47.4609 180.719 47.1211 180.445 46.8086C180.172 46.4883 179.789 46.3281 179.297 46.3281C178.945 46.3281 178.648 46.4102 178.406 46.5742C178.164 46.7305 177.98 46.9414 177.855 47.207C177.738 47.4727 177.68 47.7695 177.68 48.0977C177.68 48.4492 177.773 48.8086 177.961 49.1758C178.148 49.5352 178.402 49.918 178.723 50.3242C179.043 50.7227 179.398 51.1562 179.789 51.625L187.84 61H184.008L177.445 53.4062C176.891 52.7188 176.406 52.0898 175.992 51.5195C175.578 50.9414 175.254 50.3789 175.02 49.832C174.785 49.2852 174.668 48.7227 174.668 48.1445C174.668 47.2539 174.859 46.4766 175.242 45.8125C175.625 45.1406 176.164 44.6211 176.859 44.2539C177.555 43.8789 178.371 43.6914 179.309 43.6914C180.191 43.6914 180.957 43.875 181.605 44.2422C182.254 44.6016 182.754 45.0781 183.105 45.6719C183.465 46.2656 183.645 46.918 183.645 47.6289C183.645 48.1602 183.547 48.6523 183.352 49.1055C183.156 49.5508 182.887 49.9648 182.543 50.3477C182.199 50.7227 181.805 51.0703 181.359 51.3906L177.621 54.0508C177.332 54.3164 177.113 54.5781 176.965 54.8359C176.816 55.0938 176.715 55.3398 176.66 55.5742C176.605 55.8008 176.578 56.0195 176.578 56.2305C176.578 56.6836 176.676 57.0898 176.871 57.4492C177.066 57.8086 177.34 58.0898 177.691 58.293C178.043 58.4961 178.453 58.5977 178.922 58.5977C179.562 58.5977 180.184 58.457 180.785 58.1758C181.387 57.8945 181.926 57.4922 182.402 56.9688C182.879 56.4375 183.258 55.8086 183.539 55.082C183.82 54.3555 183.961 53.5547 183.961 52.6797H186.82C186.82 53.5547 186.734 54.3867 186.562 55.1758C186.391 55.957 186.113 56.6836 185.73 57.3555C185.348 58.0195 184.84 58.6094 184.207 59.125C184.16 59.1641 184.094 59.2227 184.008 59.3008C183.93 59.3711 183.863 59.4258 183.809 59.4648C183.059 60.0664 182.277 60.5156 181.465 60.8125C180.652 61.1016 179.746 61.2461 178.746 61.2461C177.605 61.2461 176.617 61.0391 175.781 60.625C174.953 60.2109 174.312 59.6406 173.859 58.9141C173.414 58.1875 173.191 57.3555 173.191 56.418C173.191 55.7305 173.324 55.1328 173.59 54.625C173.863 54.1094 174.238 53.6328 174.715 53.1953C175.191 52.7578 175.738 52.3164 176.355 51.8711ZM207.035 50.8867V53.6289H198.129V50.8867H207.035ZM199.172 43.9375V61H195.656V43.9375H199.172ZM209.543 43.9375V61H206.039V43.9375H209.543ZM211.852 54.7891V54.543C211.852 53.6133 211.984 52.7578 212.25 51.9766C212.516 51.1875 212.902 50.5039 213.41 49.9258C213.918 49.3477 214.543 48.8984 215.285 48.5781C216.027 48.25 216.879 48.0859 217.84 48.0859C218.801 48.0859 219.656 48.25 220.406 48.5781C221.156 48.8984 221.785 49.3477 222.293 49.9258C222.809 50.5039 223.199 51.1875 223.465 51.9766C223.73 52.7578 223.863 53.6133 223.863 54.543V54.7891C223.863 55.7109 223.73 56.5664 223.465 57.3555C223.199 58.1367 222.809 58.8203 222.293 59.4062C221.785 59.9844 221.16 60.4336 220.418 60.7539C219.676 61.0742 218.824 61.2344 217.863 61.2344C216.902 61.2344 216.047 61.0742 215.297 60.7539C214.555 60.4336 213.926 59.9844 213.41 59.4062C212.902 58.8203 212.516 58.1367 212.25 57.3555C211.984 56.5664 211.852 55.7109 211.852 54.7891ZM215.227 54.543V54.7891C215.227 55.3203 215.273 55.8164 215.367 56.2773C215.461 56.7383 215.609 57.1445 215.812 57.4961C216.023 57.8398 216.297 58.1094 216.633 58.3047C216.969 58.5 217.379 58.5977 217.863 58.5977C218.332 58.5977 218.734 58.5 219.07 58.3047C219.406 58.1094 219.676 57.8398 219.879 57.4961C220.082 57.1445 220.23 56.7383 220.324 56.2773C220.426 55.8164 220.477 55.3203 220.477 54.7891V54.543C220.477 54.0273 220.426 53.543 220.324 53.0898C220.23 52.6289 220.078 52.2227 219.867 51.8711C219.664 51.5117 219.395 51.2305 219.059 51.0273C218.723 50.8242 218.316 50.7227 217.84 50.7227C217.363 50.7227 216.957 50.8242 216.621 51.0273C216.293 51.2305 216.023 51.5117 215.812 51.8711C215.609 52.2227 215.461 52.6289 215.367 53.0898C215.273 53.543 215.227 54.0273 215.227 54.543ZM232.793 57.4961C232.793 57.2539 232.723 57.0352 232.582 56.8398C232.441 56.6445 232.18 56.4648 231.797 56.3008C231.422 56.1289 230.879 55.9727 230.168 55.832C229.527 55.6914 228.93 55.5156 228.375 55.3047C227.828 55.0859 227.352 54.8242 226.945 54.5195C226.547 54.2148 226.234 53.8555 226.008 53.4414C225.781 53.0195 225.668 52.5391 225.668 52C225.668 51.4688 225.781 50.9688 226.008 50.5C226.242 50.0312 226.574 49.6172 227.004 49.2578C227.441 48.8906 227.973 48.6055 228.598 48.4023C229.23 48.1914 229.941 48.0859 230.73 48.0859C231.832 48.0859 232.777 48.2617 233.566 48.6133C234.363 48.9648 234.973 49.4492 235.395 50.0664C235.824 50.6758 236.039 51.3711 236.039 52.1523H232.664C232.664 51.8242 232.594 51.5312 232.453 51.2734C232.32 51.0078 232.109 50.8008 231.82 50.6523C231.539 50.4961 231.172 50.418 230.719 50.418C230.344 50.418 230.02 50.4844 229.746 50.6172C229.473 50.7422 229.262 50.9141 229.113 51.1328C228.973 51.3438 228.902 51.5781 228.902 51.8359C228.902 52.0312 228.941 52.207 229.02 52.3633C229.105 52.5117 229.242 52.6484 229.43 52.7734C229.617 52.8984 229.859 53.0156 230.156 53.125C230.461 53.2266 230.836 53.3203 231.281 53.4062C232.195 53.5938 233.012 53.8398 233.73 54.1445C234.449 54.4414 235.02 54.8477 235.441 55.3633C235.863 55.8711 236.074 56.5391 236.074 57.3672C236.074 57.9297 235.949 58.4453 235.699 58.9141C235.449 59.3828 235.09 59.793 234.621 60.1445C234.152 60.4883 233.59 60.7578 232.934 60.9531C232.285 61.1406 231.555 61.2344 230.742 61.2344C229.562 61.2344 228.562 61.0234 227.742 60.6016C226.93 60.1797 226.312 59.6445 225.891 58.9961C225.477 58.3398 225.27 57.668 225.27 56.9805H228.469C228.484 57.4414 228.602 57.8125 228.82 58.0938C229.047 58.375 229.332 58.5781 229.676 58.7031C230.027 58.8281 230.406 58.8906 230.812 58.8906C231.25 58.8906 231.613 58.832 231.902 58.7148C232.191 58.5898 232.41 58.4258 232.559 58.2227C232.715 58.0117 232.793 57.7695 232.793 57.4961ZM244.477 48.3203V50.7109H237.094V48.3203H244.477ZM238.922 45.1914H242.297V57.1797C242.297 57.5469 242.344 57.8281 242.438 58.0234C242.539 58.2188 242.688 58.3555 242.883 58.4336C243.078 58.5039 243.324 58.5391 243.621 58.5391C243.832 58.5391 244.02 58.5312 244.184 58.5156C244.355 58.4922 244.5 58.4688 244.617 58.4453L244.629 60.9297C244.34 61.0234 244.027 61.0977 243.691 61.1523C243.355 61.207 242.984 61.2344 242.578 61.2344C241.836 61.2344 241.188 61.1133 240.633 60.8711C240.086 60.6211 239.664 60.2227 239.367 59.6758C239.07 59.1289 238.922 58.4102 238.922 57.5195V45.1914Z" fill="#888888"/>
<path d="M110.062 92.0469L101.742 119H92.9062L105.445 84.875H111.047L110.062 92.0469ZM116.953 119L108.609 92.0469L107.531 84.875H113.203L125.812 119H116.953ZM116.625 106.273V112.625H99.1172V106.273H116.625ZM135.258 115.906L142.055 84.875H146.109L148.312 87.5234L141.07 119H136.594L135.258 115.906ZM133.453 84.875L139.195 116.141L137.719 119H132.539L125.297 84.875H133.453ZM152.039 115.977L157.734 84.875H165.867L158.625 119H153.469L152.039 115.977ZM149.039 84.875L156 116.094L154.594 119H150.117L142.711 87.4766L145.008 84.875H149.039ZM186.68 109.93C186.68 109.398 186.602 108.922 186.445 108.5C186.289 108.062 186 107.656 185.578 107.281C185.156 106.906 184.547 106.531 183.75 106.156C182.969 105.766 181.938 105.359 180.656 104.938C179.156 104.438 177.711 103.875 176.32 103.25C174.93 102.609 173.688 101.867 172.594 101.023C171.5 100.164 170.633 99.1641 169.992 98.0234C169.352 96.8672 169.031 95.5234 169.031 93.9922C169.031 92.5234 169.359 91.2031 170.016 90.0312C170.672 88.8438 171.586 87.8359 172.758 87.0078C173.945 86.1641 175.336 85.5234 176.93 85.0859C178.523 84.6328 180.266 84.4062 182.156 84.4062C184.656 84.4062 186.859 84.8438 188.766 85.7188C190.688 86.5781 192.188 87.8047 193.266 89.3984C194.359 90.9766 194.906 92.8438 194.906 95H186.727C186.727 94.1406 186.547 93.3828 186.188 92.7266C185.844 92.0703 185.32 91.5547 184.617 91.1797C183.914 90.8047 183.031 90.6172 181.969 90.6172C180.938 90.6172 180.07 90.7734 179.367 91.0859C178.664 91.3984 178.133 91.8203 177.773 92.3516C177.414 92.8672 177.234 93.4375 177.234 94.0625C177.234 94.5781 177.375 95.0469 177.656 95.4688C177.953 95.875 178.367 96.2578 178.898 96.6172C179.445 96.9766 180.102 97.3203 180.867 97.6484C181.648 97.9766 182.523 98.2969 183.492 98.6094C185.305 99.1875 186.914 99.8359 188.32 100.555C189.742 101.258 190.938 102.062 191.906 102.969C192.891 103.859 193.633 104.875 194.133 106.016C194.648 107.156 194.906 108.445 194.906 109.883C194.906 111.414 194.609 112.773 194.016 113.961C193.422 115.148 192.57 116.156 191.461 116.984C190.352 117.797 189.023 118.414 187.477 118.836C185.93 119.258 184.203 119.469 182.297 119.469C180.547 119.469 178.82 119.25 177.117 118.812C175.43 118.359 173.898 117.672 172.523 116.75C171.148 115.812 170.047 114.617 169.219 113.164C168.406 111.695 168 109.953 168 107.938H176.25C176.25 108.938 176.383 109.781 176.648 110.469C176.914 111.156 177.305 111.711 177.82 112.133C178.336 112.539 178.969 112.836 179.719 113.023C180.469 113.195 181.328 113.281 182.297 113.281C183.344 113.281 184.188 113.133 184.828 112.836C185.469 112.523 185.938 112.117 186.234 111.617C186.531 111.102 186.68 110.539 186.68 109.93ZM222.188 119H214.617L214.664 112.672H222.188C223.75 112.672 225.07 112.297 226.148 111.547C227.242 110.797 228.07 109.68 228.633 108.195C229.211 106.695 229.5 104.852 229.5 102.664V101.188C229.5 99.5469 229.336 98.1094 229.008 96.875C228.695 95.625 228.227 94.5859 227.602 93.7578C226.977 92.9141 226.195 92.2812 225.258 91.8594C224.336 91.4375 223.273 91.2266 222.07 91.2266H214.477V84.875H222.07C224.383 84.875 226.5 85.2734 228.422 86.0703C230.359 86.8516 232.031 87.9766 233.438 89.4453C234.859 90.8984 235.953 92.625 236.719 94.625C237.5 96.6094 237.891 98.8125 237.891 101.234V102.664C237.891 105.07 237.5 107.273 236.719 109.273C235.953 111.273 234.867 113 233.461 114.453C232.055 115.906 230.391 117.031 228.469 117.828C226.562 118.609 224.469 119 222.188 119ZM219.328 84.875V119H211.102V84.875H219.328ZM254.086 119.469C252.023 119.469 250.18 119.148 248.555 118.508C246.93 117.852 245.555 116.953 244.43 115.812C243.32 114.672 242.469 113.359 241.875 111.875C241.297 110.391 241.008 108.82 241.008 107.164V106.273C241.008 104.414 241.266 102.695 241.781 101.117C242.297 99.5234 243.062 98.1328 244.078 96.9453C245.094 95.7578 246.367 94.8359 247.898 94.1797C249.43 93.5078 251.211 93.1719 253.242 93.1719C255.039 93.1719 256.648 93.4609 258.07 94.0391C259.492 94.6172 260.695 95.4453 261.68 96.5234C262.68 97.6016 263.438 98.9062 263.953 100.438C264.484 101.969 264.75 103.688 264.75 105.594V108.805H244.031V103.859H257.039V103.25C257.055 102.406 256.906 101.688 256.594 101.094C256.297 100.5 255.859 100.047 255.281 99.7344C254.703 99.4219 254 99.2656 253.172 99.2656C252.312 99.2656 251.602 99.4531 251.039 99.8281C250.492 100.203 250.062 100.719 249.75 101.375C249.453 102.016 249.242 102.758 249.117 103.602C248.992 104.445 248.93 105.336 248.93 106.273V107.164C248.93 108.102 249.055 108.953 249.305 109.719C249.57 110.484 249.945 111.141 250.43 111.688C250.93 112.219 251.523 112.633 252.211 112.93C252.914 113.227 253.711 113.375 254.602 113.375C255.68 113.375 256.742 113.172 257.789 112.766C258.836 112.359 259.734 111.688 260.484 110.75L264.07 115.016C263.555 115.75 262.82 116.461 261.867 117.148C260.93 117.836 259.805 118.398 258.492 118.836C257.18 119.258 255.711 119.469 254.086 119.469ZM275.93 98.5156V128.75H268.031V93.6406H275.391L275.93 98.5156ZM291.492 106.016V106.508C291.492 108.352 291.281 110.062 290.859 111.641C290.438 113.219 289.812 114.594 288.984 115.766C288.156 116.938 287.125 117.852 285.891 118.508C284.672 119.148 283.258 119.469 281.648 119.469C280.133 119.469 278.828 119.133 277.734 118.461C276.641 117.789 275.727 116.859 274.992 115.672C274.258 114.484 273.664 113.125 273.211 111.594C272.758 110.062 272.398 108.445 272.133 106.742V106.109C272.398 104.281 272.758 102.586 273.211 101.023C273.664 99.4453 274.258 98.0703 274.992 96.8984C275.727 95.7266 276.633 94.8125 277.711 94.1562C278.805 93.5 280.109 93.1719 281.625 93.1719C283.234 93.1719 284.648 93.4766 285.867 94.0859C287.102 94.6953 288.133 95.5703 288.961 96.7109C289.805 97.8359 290.438 99.1875 290.859 100.766C291.281 102.344 291.492 104.094 291.492 106.016ZM283.594 106.508V106.016C283.594 105.031 283.523 104.133 283.383 103.32C283.242 102.492 283.016 101.773 282.703 101.164C282.406 100.555 282.008 100.086 281.508 99.7578C281.008 99.4297 280.391 99.2656 279.656 99.2656C278.812 99.2656 278.102 99.3984 277.523 99.6641C276.961 99.9141 276.508 100.305 276.164 100.836C275.836 101.352 275.602 102 275.461 102.781C275.336 103.547 275.281 104.445 275.297 105.477V107.398C275.266 108.586 275.383 109.633 275.648 110.539C275.914 111.43 276.375 112.125 277.031 112.625C277.688 113.125 278.578 113.375 279.703 113.375C280.453 113.375 281.078 113.203 281.578 112.859C282.078 112.5 282.477 112.008 282.773 111.383C283.07 110.742 283.281 110.008 283.406 109.18C283.531 108.352 283.594 107.461 283.594 106.508ZM303.352 83V119H295.43V83H303.352ZM307.242 106.578V106.086C307.242 104.227 307.508 102.516 308.039 100.953C308.57 99.375 309.352 98.0078 310.383 96.8516C311.414 95.6953 312.688 94.7969 314.203 94.1562C315.719 93.5 317.469 93.1719 319.453 93.1719C321.453 93.1719 323.211 93.5 324.727 94.1562C326.258 94.7969 327.539 95.6953 328.57 96.8516C329.602 98.0078 330.383 99.375 330.914 100.953C331.445 102.516 331.711 104.227 331.711 106.086V106.578C331.711 108.422 331.445 110.133 330.914 111.711C330.383 113.273 329.602 114.641 328.57 115.812C327.539 116.969 326.266 117.867 324.75 118.508C323.234 119.148 321.484 119.469 319.5 119.469C317.516 119.469 315.758 119.148 314.227 118.508C312.695 117.867 311.414 116.969 310.383 115.812C309.352 114.641 308.57 113.273 308.039 111.711C307.508 110.133 307.242 108.422 307.242 106.578ZM315.141 106.086V106.578C315.141 107.531 315.211 108.422 315.352 109.25C315.492 110.078 315.727 110.805 316.055 111.43C316.383 112.039 316.828 112.516 317.391 112.859C317.953 113.203 318.656 113.375 319.5 113.375C320.328 113.375 321.016 113.203 321.562 112.859C322.125 112.516 322.57 112.039 322.898 111.43C323.227 110.805 323.461 110.078 323.602 109.25C323.742 108.422 323.812 107.531 323.812 106.578V106.086C323.812 105.164 323.742 104.297 323.602 103.484C323.461 102.656 323.227 101.93 322.898 101.305C322.57 100.664 322.125 100.164 321.562 99.8047C321 99.4453 320.297 99.2656 319.453 99.2656C318.625 99.2656 317.93 99.4453 317.367 99.8047C316.82 100.164 316.383 100.664 316.055 101.305C315.727 101.93 315.492 102.656 315.352 103.484C315.211 104.297 315.141 105.164 315.141 106.086ZM342.633 116.023L349.195 93.6406H357.68L347.484 122.773C347.266 123.414 346.977 124.102 346.617 124.836C346.258 125.586 345.766 126.297 345.141 126.969C344.516 127.641 343.711 128.188 342.727 128.609C341.758 129.031 340.555 129.242 339.117 129.242C338.352 129.242 337.789 129.203 337.43 129.125C337.086 129.062 336.555 128.945 335.836 128.773V123.125C336.039 123.125 336.211 123.125 336.352 123.125C336.508 123.125 336.68 123.125 336.867 123.125C337.711 123.125 338.383 123.039 338.883 122.867C339.398 122.695 339.789 122.445 340.055 122.117C340.336 121.789 340.555 121.391 340.711 120.922L342.633 116.023ZM340.969 93.6406L345.961 111.383L346.828 119.75H341.531L332.508 93.6406H340.969ZM367.711 99.0078V119H359.812V93.6406H367.219L367.711 99.0078ZM366.75 105.453L364.945 105.5C364.945 103.719 365.156 102.078 365.578 100.578C366 99.0781 366.625 97.7734 367.453 96.6641C368.281 95.5547 369.297 94.6953 370.5 94.0859C371.719 93.4766 373.125 93.1719 374.719 93.1719C375.828 93.1719 376.836 93.3438 377.742 93.6875C378.648 94.0156 379.43 94.5391 380.086 95.2578C380.742 95.9609 381.242 96.8828 381.586 98.0234C381.945 99.1484 382.125 100.5 382.125 102.078V119H374.227V103.086C374.227 102.008 374.102 101.195 373.852 100.648C373.617 100.102 373.273 99.7344 372.82 99.5469C372.367 99.3594 371.812 99.2656 371.156 99.2656C370.469 99.2656 369.852 99.4219 369.305 99.7344C368.758 100.047 368.289 100.484 367.898 101.047C367.523 101.594 367.234 102.242 367.031 102.992C366.844 103.742 366.75 104.562 366.75 105.453ZM381.234 105.453L379.031 105.5C379.031 103.719 379.227 102.078 379.617 100.578C380.023 99.0781 380.625 97.7734 381.422 96.6641C382.234 95.5547 383.242 94.6953 384.445 94.0859C385.648 93.4766 387.047 93.1719 388.641 93.1719C389.797 93.1719 390.859 93.3438 391.828 93.6875C392.797 94.0312 393.633 94.5859 394.336 95.3516C395.039 96.1172 395.586 97.1328 395.977 98.3984C396.367 99.6484 396.562 101.195 396.562 103.039V119H388.641V103.039C388.641 101.992 388.516 101.203 388.266 100.672C388.031 100.125 387.688 99.7578 387.234 99.5703C386.781 99.3672 386.242 99.2656 385.617 99.2656C384.867 99.2656 384.219 99.4219 383.672 99.7344C383.125 100.047 382.664 100.484 382.289 101.047C381.93 101.594 381.664 102.242 381.492 102.992C381.32 103.742 381.234 104.562 381.234 105.453ZM413.367 119.469C411.305 119.469 409.461 119.148 407.836 118.508C406.211 117.852 404.836 116.953 403.711 115.812C402.602 114.672 401.75 113.359 401.156 111.875C400.578 110.391 400.289 108.82 400.289 107.164V106.273C400.289 104.414 400.547 102.695 401.062 101.117C401.578 99.5234 402.344 98.1328 403.359 96.9453C404.375 95.7578 405.648 94.8359 407.18 94.1797C408.711 93.5078 410.492 93.1719 412.523 93.1719C414.32 93.1719 415.93 93.4609 417.352 94.0391C418.773 94.6172 419.977 95.4453 420.961 96.5234C421.961 97.6016 422.719 98.9062 423.234 100.438C423.766 101.969 424.031 103.688 424.031 105.594V108.805H403.312V103.859H416.32V103.25C416.336 102.406 416.188 101.688 415.875 101.094C415.578 100.5 415.141 100.047 414.562 99.7344C413.984 99.4219 413.281 99.2656 412.453 99.2656C411.594 99.2656 410.883 99.4531 410.32 99.8281C409.773 100.203 409.344 100.719 409.031 101.375C408.734 102.016 408.523 102.758 408.398 103.602C408.273 104.445 408.211 105.336 408.211 106.273V107.164C408.211 108.102 408.336 108.953 408.586 109.719C408.852 110.484 409.227 111.141 409.711 111.688C410.211 112.219 410.805 112.633 411.492 112.93C412.195 113.227 412.992 113.375 413.883 113.375C414.961 113.375 416.023 113.172 417.07 112.766C418.117 112.359 419.016 111.688 419.766 110.75L423.352 115.016C422.836 115.75 422.102 116.461 421.148 117.148C420.211 117.836 419.086 118.398 417.773 118.836C416.461 119.258 414.992 119.469 413.367 119.469ZM435 99.0547V119H427.102V93.6406H434.508L435 99.0547ZM434.062 105.453L432.211 105.5C432.211 103.562 432.445 101.836 432.914 100.32C433.383 98.7891 434.047 97.4922 434.906 96.4297C435.766 95.3672 436.789 94.5625 437.977 94.0156C439.18 93.4531 440.516 93.1719 441.984 93.1719C443.156 93.1719 444.227 93.3438 445.195 93.6875C446.18 94.0312 447.023 94.5859 447.727 95.3516C448.445 96.1172 448.992 97.1328 449.367 98.3984C449.758 99.6484 449.953 101.195 449.953 103.039V119H442.008V103.016C442.008 102 441.867 101.227 441.586 100.695C441.305 100.148 440.898 99.7734 440.367 99.5703C439.836 99.3672 439.188 99.2656 438.422 99.2656C437.609 99.2656 436.922 99.4219 436.359 99.7344C435.797 100.047 435.344 100.484 435 101.047C434.672 101.594 434.43 102.242 434.273 102.992C434.133 103.742 434.062 104.562 434.062 105.453ZM467.695 93.6406V99.125H452.414V93.6406H467.695ZM455.625 87.3359H463.523V110.727C463.523 111.398 463.602 111.922 463.758 112.297C463.914 112.656 464.18 112.914 464.555 113.07C464.945 113.211 465.461 113.281 466.102 113.281C466.555 113.281 466.93 113.273 467.227 113.258C467.523 113.227 467.805 113.188 468.07 113.141V118.789C467.398 119.008 466.695 119.172 465.961 119.281C465.227 119.406 464.445 119.469 463.617 119.469C461.93 119.469 460.484 119.203 459.281 118.672C458.094 118.141 457.188 117.305 456.562 116.164C455.938 115.023 455.625 113.539 455.625 111.711V87.3359Z" fill="black"/>
<path d="M1134 0H1348C1356.28 0 1363 6.71573 1363 15V148C1363 156.284 1356.28 163 1348 163H1134V0Z" fill="#1299F3"/>
<path d="M1212.5 117.5L1212.5 45.5L1284.5 45.5L1284.5 117.5L1212.5 117.5Z" fill="white" fill-opacity="0.01"/>
<path d="M1221.5 81.5125L1221.5 108.5L1275.5 108.5L1275.5 81.5" stroke="white" stroke-width="7.24" stroke-linecap="round" stroke-linejoin="round"/>
<path d="M1262 68L1248.5 54.5L1235 68" stroke="white" stroke-width="7.24" stroke-linecap="round" stroke-linejoin="round"/>
<path d="M1248.49 93.5L1248.49 54.5" stroke="white" stroke-width="7.24" stroke-linecap="round" stroke-linejoin="round"/>
</svg>
