<svg width="1363" height="163" viewBox="0 0 1363 163" fill="none" xmlns="http://www.w3.org/2000/svg">
<path d="M0 15C0 6.71573 6.71573 0 15 0H37V163H15C6.71573 163 0 156.284 0 148V15Z" fill="#424242"/>
<rect width="1097" height="163" transform="translate(37)" fill="#F0F0F0"/>
<path d="M101.906 53.9219L94.3945 51.2383V48.0859L104.602 52.375V54.6367L101.906 53.9219ZM94.3945 56.1719L101.918 53.4297L104.602 52.7852V55.0352L94.3945 59.3242V56.1719ZM119.578 53.5117H115.195L115.172 51.0977H118.852C119.5 51.0977 120.031 51.0156 120.445 50.8516C120.859 50.6797 121.168 50.4336 121.371 50.1133C121.582 49.7852 121.688 49.3867 121.688 48.918C121.688 48.3867 121.586 47.957 121.383 47.6289C121.188 47.3008 120.879 47.0625 120.457 46.9141C120.043 46.7656 119.508 46.6914 118.852 46.6914H116.414V61H112.898V43.9375H118.852C119.844 43.9375 120.73 44.0312 121.512 44.2188C122.301 44.4062 122.969 44.6914 123.516 45.0742C124.062 45.457 124.48 45.9414 124.77 46.5273C125.059 47.1055 125.203 47.793 125.203 48.5898C125.203 49.293 125.043 49.9414 124.723 50.5352C124.41 51.1289 123.914 51.6133 123.234 51.9883C122.562 52.3633 121.684 52.5703 120.598 52.6094L119.578 53.5117ZM119.426 61H114.234L115.605 58.2578H119.426C120.043 58.2578 120.547 58.1602 120.938 57.9648C121.328 57.7617 121.617 57.4883 121.805 57.1445C121.992 56.8008 122.086 56.4062 122.086 55.9609C122.086 55.4609 122 55.0273 121.828 54.6602C121.664 54.293 121.398 54.0117 121.031 53.8164C120.664 53.6133 120.18 53.5117 119.578 53.5117H116.191L116.215 51.0977H120.434L121.242 52.0469C122.281 52.0312 123.117 52.2148 123.75 52.5977C124.391 52.9727 124.855 53.4609 125.145 54.0625C125.441 54.6641 125.59 55.3086 125.59 55.9961C125.59 57.0898 125.352 58.0117 124.875 58.7617C124.398 59.5039 123.699 60.0625 122.777 60.4375C121.863 60.8125 120.746 61 119.426 61ZM135.516 57.9648V48.3203H138.891V61H135.715L135.516 57.9648ZM135.891 55.3633L136.887 55.3398C136.887 56.1836 136.789 56.9688 136.594 57.6953C136.398 58.4141 136.105 59.0391 135.715 59.5703C135.324 60.0938 134.832 60.5039 134.238 60.8008C133.645 61.0898 132.945 61.2344 132.141 61.2344C131.523 61.2344 130.953 61.1484 130.43 60.9766C129.914 60.7969 129.469 60.5195 129.094 60.1445C128.727 59.7617 128.438 59.2734 128.227 58.6797C128.023 58.0781 127.922 57.3555 127.922 56.5117V48.3203H131.297V56.5352C131.297 56.9102 131.34 57.2266 131.426 57.4844C131.52 57.7422 131.648 57.9531 131.812 58.1172C131.977 58.2812 132.168 58.3984 132.387 58.4688C132.613 58.5391 132.863 58.5742 133.137 58.5742C133.832 58.5742 134.379 58.4336 134.777 58.1523C135.184 57.8711 135.469 57.4883 135.633 57.0039C135.805 56.5117 135.891 55.9648 135.891 55.3633ZM145.031 48.3203V61H141.645V48.3203H145.031ZM141.434 45.0156C141.434 44.5234 141.605 44.1172 141.949 43.7969C142.293 43.4766 142.754 43.3164 143.332 43.3164C143.902 43.3164 144.359 43.4766 144.703 43.7969C145.055 44.1172 145.23 44.5234 145.23 45.0156C145.23 45.5078 145.055 45.9141 144.703 46.2344C144.359 46.5547 143.902 46.7148 143.332 46.7148C142.754 46.7148 142.293 46.5547 141.949 46.2344C141.605 45.9141 141.434 45.5078 141.434 45.0156ZM151.383 43V61H147.996V43H151.383ZM161.66 58.2344V43H165.059V61H162L161.66 58.2344ZM153.645 54.8125V54.5664C153.645 53.5977 153.754 52.7188 153.973 51.9297C154.191 51.1328 154.512 50.4492 154.934 49.8789C155.355 49.3086 155.875 48.8672 156.492 48.5547C157.109 48.2422 157.812 48.0859 158.602 48.0859C159.344 48.0859 159.992 48.2422 160.547 48.5547C161.109 48.8672 161.586 49.3125 161.977 49.8906C162.375 50.4609 162.695 51.1367 162.938 51.918C163.18 52.6914 163.355 53.5391 163.465 54.4609V55C163.355 55.8828 163.18 56.7031 162.938 57.4609C162.695 58.2188 162.375 58.8828 161.977 59.4531C161.586 60.0156 161.109 60.4531 160.547 60.7656C159.984 61.0781 159.328 61.2344 158.578 61.2344C157.789 61.2344 157.086 61.0742 156.469 60.7539C155.859 60.4336 155.344 59.9844 154.922 59.4062C154.508 58.8281 154.191 58.1484 153.973 57.3672C153.754 56.5859 153.645 55.7344 153.645 54.8125ZM157.02 54.5664V54.8125C157.02 55.3359 157.059 55.8242 157.137 56.2773C157.223 56.7305 157.359 57.1328 157.547 57.4844C157.742 57.8281 157.992 58.0977 158.297 58.293C158.609 58.4805 158.988 58.5742 159.434 58.5742C160.012 58.5742 160.488 58.4453 160.863 58.1875C161.238 57.9219 161.523 57.5586 161.719 57.0977C161.922 56.6367 162.039 56.1055 162.07 55.5039V53.9688C162.047 53.4766 161.977 53.0352 161.859 52.6445C161.75 52.2461 161.586 51.9062 161.367 51.625C161.156 51.3438 160.891 51.125 160.57 50.9688C160.258 50.8125 159.887 50.7344 159.457 50.7344C159.02 50.7344 158.645 50.8359 158.332 51.0391C158.02 51.2344 157.766 51.5039 157.57 51.8477C157.383 52.1914 157.242 52.5977 157.148 53.0664C157.062 53.5273 157.02 54.0273 157.02 54.5664ZM176.355 51.8711L179.637 49.75C180.121 49.4297 180.445 49.1211 180.609 48.8242C180.773 48.5273 180.855 48.1953 180.855 47.8281C180.855 47.4609 180.719 47.1211 180.445 46.8086C180.172 46.4883 179.789 46.3281 179.297 46.3281C178.945 46.3281 178.648 46.4102 178.406 46.5742C178.164 46.7305 177.98 46.9414 177.855 47.207C177.738 47.4727 177.68 47.7695 177.68 48.0977C177.68 48.4492 177.773 48.8086 177.961 49.1758C178.148 49.5352 178.402 49.918 178.723 50.3242C179.043 50.7227 179.398 51.1562 179.789 51.625L187.84 61H184.008L177.445 53.4062C176.891 52.7188 176.406 52.0898 175.992 51.5195C175.578 50.9414 175.254 50.3789 175.02 49.832C174.785 49.2852 174.668 48.7227 174.668 48.1445C174.668 47.2539 174.859 46.4766 175.242 45.8125C175.625 45.1406 176.164 44.6211 176.859 44.2539C177.555 43.8789 178.371 43.6914 179.309 43.6914C180.191 43.6914 180.957 43.875 181.605 44.2422C182.254 44.6016 182.754 45.0781 183.105 45.6719C183.465 46.2656 183.645 46.918 183.645 47.6289C183.645 48.1602 183.547 48.6523 183.352 49.1055C183.156 49.5508 182.887 49.9648 182.543 50.3477C182.199 50.7227 181.805 51.0703 181.359 51.3906L177.621 54.0508C177.332 54.3164 177.113 54.5781 176.965 54.8359C176.816 55.0938 176.715 55.3398 176.66 55.5742C176.605 55.8008 176.578 56.0195 176.578 56.2305C176.578 56.6836 176.676 57.0898 176.871 57.4492C177.066 57.8086 177.34 58.0898 177.691 58.293C178.043 58.4961 178.453 58.5977 178.922 58.5977C179.562 58.5977 180.184 58.457 180.785 58.1758C181.387 57.8945 181.926 57.4922 182.402 56.9688C182.879 56.4375 183.258 55.8086 183.539 55.082C183.82 54.3555 183.961 53.5547 183.961 52.6797H186.82C186.82 53.5547 186.734 54.3867 186.562 55.1758C186.391 55.957 186.113 56.6836 185.73 57.3555C185.348 58.0195 184.84 58.6094 184.207 59.125C184.16 59.1641 184.094 59.2227 184.008 59.3008C183.93 59.3711 183.863 59.4258 183.809 59.4648C183.059 60.0664 182.277 60.5156 181.465 60.8125C180.652 61.1016 179.746 61.2461 178.746 61.2461C177.605 61.2461 176.617 61.0391 175.781 60.625C174.953 60.2109 174.312 59.6406 173.859 58.9141C173.414 58.1875 173.191 57.3555 173.191 56.418C173.191 55.7305 173.324 55.1328 173.59 54.625C173.863 54.1094 174.238 53.6328 174.715 53.1953C175.191 52.7578 175.738 52.3164 176.355 51.8711ZM207.035 50.8867V53.6289H198.129V50.8867H207.035ZM199.172 43.9375V61H195.656V43.9375H199.172ZM209.543 43.9375V61H206.039V43.9375H209.543ZM211.852 54.7891V54.543C211.852 53.6133 211.984 52.7578 212.25 51.9766C212.516 51.1875 212.902 50.5039 213.41 49.9258C213.918 49.3477 214.543 48.8984 215.285 48.5781C216.027 48.25 216.879 48.0859 217.84 48.0859C218.801 48.0859 219.656 48.25 220.406 48.5781C221.156 48.8984 221.785 49.3477 222.293 49.9258C222.809 50.5039 223.199 51.1875 223.465 51.9766C223.73 52.7578 223.863 53.6133 223.863 54.543V54.7891C223.863 55.7109 223.73 56.5664 223.465 57.3555C223.199 58.1367 222.809 58.8203 222.293 59.4062C221.785 59.9844 221.16 60.4336 220.418 60.7539C219.676 61.0742 218.824 61.2344 217.863 61.2344C216.902 61.2344 216.047 61.0742 215.297 60.7539C214.555 60.4336 213.926 59.9844 213.41 59.4062C212.902 58.8203 212.516 58.1367 212.25 57.3555C211.984 56.5664 211.852 55.7109 211.852 54.7891ZM215.227 54.543V54.7891C215.227 55.3203 215.273 55.8164 215.367 56.2773C215.461 56.7383 215.609 57.1445 215.812 57.4961C216.023 57.8398 216.297 58.1094 216.633 58.3047C216.969 58.5 217.379 58.5977 217.863 58.5977C218.332 58.5977 218.734 58.5 219.07 58.3047C219.406 58.1094 219.676 57.8398 219.879 57.4961C220.082 57.1445 220.23 56.7383 220.324 56.2773C220.426 55.8164 220.477 55.3203 220.477 54.7891V54.543C220.477 54.0273 220.426 53.543 220.324 53.0898C220.23 52.6289 220.078 52.2227 219.867 51.8711C219.664 51.5117 219.395 51.2305 219.059 51.0273C218.723 50.8242 218.316 50.7227 217.84 50.7227C217.363 50.7227 216.957 50.8242 216.621 51.0273C216.293 51.2305 216.023 51.5117 215.812 51.8711C215.609 52.2227 215.461 52.6289 215.367 53.0898C215.273 53.543 215.227 54.0273 215.227 54.543ZM232.793 57.4961C232.793 57.2539 232.723 57.0352 232.582 56.8398C232.441 56.6445 232.18 56.4648 231.797 56.3008C231.422 56.1289 230.879 55.9727 230.168 55.832C229.527 55.6914 228.93 55.5156 228.375 55.3047C227.828 55.0859 227.352 54.8242 226.945 54.5195C226.547 54.2148 226.234 53.8555 226.008 53.4414C225.781 53.0195 225.668 52.5391 225.668 52C225.668 51.4688 225.781 50.9688 226.008 50.5C226.242 50.0312 226.574 49.6172 227.004 49.2578C227.441 48.8906 227.973 48.6055 228.598 48.4023C229.23 48.1914 229.941 48.0859 230.73 48.0859C231.832 48.0859 232.777 48.2617 233.566 48.6133C234.363 48.9648 234.973 49.4492 235.395 50.0664C235.824 50.6758 236.039 51.3711 236.039 52.1523H232.664C232.664 51.8242 232.594 51.5312 232.453 51.2734C232.32 51.0078 232.109 50.8008 231.82 50.6523C231.539 50.4961 231.172 50.418 230.719 50.418C230.344 50.418 230.02 50.4844 229.746 50.6172C229.473 50.7422 229.262 50.9141 229.113 51.1328C228.973 51.3438 228.902 51.5781 228.902 51.8359C228.902 52.0312 228.941 52.207 229.02 52.3633C229.105 52.5117 229.242 52.6484 229.43 52.7734C229.617 52.8984 229.859 53.0156 230.156 53.125C230.461 53.2266 230.836 53.3203 231.281 53.4062C232.195 53.5938 233.012 53.8398 233.73 54.1445C234.449 54.4414 235.02 54.8477 235.441 55.3633C235.863 55.8711 236.074 56.5391 236.074 57.3672C236.074 57.9297 235.949 58.4453 235.699 58.9141C235.449 59.3828 235.09 59.793 234.621 60.1445C234.152 60.4883 233.59 60.7578 232.934 60.9531C232.285 61.1406 231.555 61.2344 230.742 61.2344C229.562 61.2344 228.562 61.0234 227.742 60.6016C226.93 60.1797 226.312 59.6445 225.891 58.9961C225.477 58.3398 225.27 57.668 225.27 56.9805H228.469C228.484 57.4414 228.602 57.8125 228.82 58.0938C229.047 58.375 229.332 58.5781 229.676 58.7031C230.027 58.8281 230.406 58.8906 230.812 58.8906C231.25 58.8906 231.613 58.832 231.902 58.7148C232.191 58.5898 232.41 58.4258 232.559 58.2227C232.715 58.0117 232.793 57.7695 232.793 57.4961ZM244.477 48.3203V50.7109H237.094V48.3203H244.477ZM238.922 45.1914H242.297V57.1797C242.297 57.5469 242.344 57.8281 242.438 58.0234C242.539 58.2188 242.688 58.3555 242.883 58.4336C243.078 58.5039 243.324 58.5391 243.621 58.5391C243.832 58.5391 244.02 58.5312 244.184 58.5156C244.355 58.4922 244.5 58.4688 244.617 58.4453L244.629 60.9297C244.34 61.0234 244.027 61.0977 243.691 61.1523C243.355 61.207 242.984 61.2344 242.578 61.2344C241.836 61.2344 241.188 61.1133 240.633 60.8711C240.086 60.6211 239.664 60.2227 239.367 59.6758C239.07 59.1289 238.922 58.4102 238.922 57.5195V45.1914Z" fill="#888888"/>
<path d="M118.594 98.4219V104.75H101.086V98.4219H118.594ZM103.828 84.875V119H95.6016V84.875H103.828ZM124.125 84.875V119H115.922V84.875H124.125ZM127.992 106.578V106.086C127.992 104.227 128.258 102.516 128.789 100.953C129.32 99.375 130.102 98.0078 131.133 96.8516C132.164 95.6953 133.438 94.7969 134.953 94.1562C136.469 93.5 138.219 93.1719 140.203 93.1719C142.203 93.1719 143.961 93.5 145.477 94.1562C147.008 94.7969 148.289 95.6953 149.32 96.8516C150.352 98.0078 151.133 99.375 151.664 100.953C152.195 102.516 152.461 104.227 152.461 106.086V106.578C152.461 108.422 152.195 110.133 151.664 111.711C151.133 113.273 150.352 114.641 149.32 115.812C148.289 116.969 147.016 117.867 145.5 118.508C143.984 119.148 142.234 119.469 140.25 119.469C138.266 119.469 136.508 119.148 134.977 118.508C133.445 117.867 132.164 116.969 131.133 115.812C130.102 114.641 129.32 113.273 128.789 111.711C128.258 110.133 127.992 108.422 127.992 106.578ZM135.891 106.086V106.578C135.891 107.531 135.961 108.422 136.102 109.25C136.242 110.078 136.477 110.805 136.805 111.43C137.133 112.039 137.578 112.516 138.141 112.859C138.703 113.203 139.406 113.375 140.25 113.375C141.078 113.375 141.766 113.203 142.312 112.859C142.875 112.516 143.32 112.039 143.648 111.43C143.977 110.805 144.211 110.078 144.352 109.25C144.492 108.422 144.562 107.531 144.562 106.578V106.086C144.562 105.164 144.492 104.297 144.352 103.484C144.211 102.656 143.977 101.93 143.648 101.305C143.32 100.664 142.875 100.164 142.312 99.8047C141.75 99.4453 141.047 99.2656 140.203 99.2656C139.375 99.2656 138.68 99.4453 138.117 99.8047C137.57 100.164 137.133 100.664 136.805 101.305C136.477 101.93 136.242 102.656 136.102 103.484C135.961 104.297 135.891 105.164 135.891 106.086ZM163.688 111.453L168.375 93.6406H173.32L171.562 102.57L166.922 119H162.961L163.688 111.453ZM161.836 93.6406L164.742 111.312L165.07 119H160.266L154.266 93.6406H161.836ZM177.492 110.938L180.422 93.6406H187.992L182.039 119H177.234L177.492 110.938ZM173.883 93.6406L178.617 111.406L179.344 119H175.336L170.789 102.617L169.102 93.6406H173.883ZM218.297 84.875V119H210.07V84.875H218.297ZM228.562 84.875V91.2266H200.039V84.875H228.562ZM225.773 106.578V106.086C225.773 104.227 226.039 102.516 226.57 100.953C227.102 99.375 227.883 98.0078 228.914 96.8516C229.945 95.6953 231.219 94.7969 232.734 94.1562C234.25 93.5 236 93.1719 237.984 93.1719C239.984 93.1719 241.742 93.5 243.258 94.1562C244.789 94.7969 246.07 95.6953 247.102 96.8516C248.133 98.0078 248.914 99.375 249.445 100.953C249.977 102.516 250.242 104.227 250.242 106.086V106.578C250.242 108.422 249.977 110.133 249.445 111.711C248.914 113.273 248.133 114.641 247.102 115.812C246.07 116.969 244.797 117.867 243.281 118.508C241.766 119.148 240.016 119.469 238.031 119.469C236.047 119.469 234.289 119.148 232.758 118.508C231.227 117.867 229.945 116.969 228.914 115.812C227.883 114.641 227.102 113.273 226.57 111.711C226.039 110.133 225.773 108.422 225.773 106.578ZM233.672 106.086V106.578C233.672 107.531 233.742 108.422 233.883 109.25C234.023 110.078 234.258 110.805 234.586 111.43C234.914 112.039 235.359 112.516 235.922 112.859C236.484 113.203 237.188 113.375 238.031 113.375C238.859 113.375 239.547 113.203 240.094 112.859C240.656 112.516 241.102 112.039 241.43 111.43C241.758 110.805 241.992 110.078 242.133 109.25C242.273 108.422 242.344 107.531 242.344 106.578V106.086C242.344 105.164 242.273 104.297 242.133 103.484C241.992 102.656 241.758 101.93 241.43 101.305C241.102 100.664 240.656 100.164 240.094 99.8047C239.531 99.4453 238.828 99.2656 237.984 99.2656C237.156 99.2656 236.461 99.4453 235.898 99.8047C235.352 100.164 234.914 100.664 234.586 101.305C234.258 101.93 234.023 102.656 233.883 103.484C233.742 104.297 233.672 105.164 233.672 106.086ZM266.086 84.875H279.516C282.141 84.875 284.422 85.2656 286.359 86.0469C288.297 86.8281 289.789 87.9844 290.836 89.5156C291.898 91.0469 292.43 92.9375 292.43 95.1875C292.43 97.1406 292.125 98.7734 291.516 100.086C290.906 101.398 290.055 102.484 288.961 103.344C287.883 104.188 286.625 104.883 285.188 105.43L282.492 106.953H271.219L271.172 100.602H279.516C280.562 100.602 281.43 100.414 282.117 100.039C282.805 99.6641 283.32 99.1328 283.664 98.4453C284.023 97.7422 284.203 96.9062 284.203 95.9375C284.203 94.9531 284.023 94.1094 283.664 93.4062C283.305 92.7031 282.773 92.1641 282.07 91.7891C281.383 91.4141 280.531 91.2266 279.516 91.2266H274.312V119H266.086V84.875ZM284.766 119L277.219 103.906L285.938 103.859L293.578 118.648V119H284.766ZM311.836 112.836V93.6406H319.758V119H312.352L311.836 112.836ZM312.586 107.68L314.648 107.633C314.648 109.336 314.445 110.914 314.039 112.367C313.633 113.805 313.031 115.055 312.234 116.117C311.453 117.18 310.484 118.008 309.328 118.602C308.188 119.18 306.867 119.469 305.367 119.469C304.117 119.469 302.969 119.297 301.922 118.953C300.891 118.594 300 118.039 299.25 117.289C298.5 116.523 297.914 115.547 297.492 114.359C297.086 113.156 296.883 111.719 296.883 110.047V93.6406H304.781V110.094C304.781 110.656 304.852 111.141 304.992 111.547C305.133 111.953 305.336 112.297 305.602 112.578C305.867 112.844 306.195 113.047 306.586 113.188C306.992 113.312 307.453 113.375 307.969 113.375C309.156 113.375 310.086 113.125 310.758 112.625C311.43 112.125 311.898 111.445 312.164 110.586C312.445 109.727 312.586 108.758 312.586 107.68ZM331.875 99.0547V119H323.977V93.6406H331.383L331.875 99.0547ZM330.938 105.453L329.086 105.5C329.086 103.562 329.32 101.836 329.789 100.32C330.258 98.7891 330.922 97.4922 331.781 96.4297C332.641 95.3672 333.664 94.5625 334.852 94.0156C336.055 93.4531 337.391 93.1719 338.859 93.1719C340.031 93.1719 341.102 93.3438 342.07 93.6875C343.055 94.0312 343.898 94.5859 344.602 95.3516C345.32 96.1172 345.867 97.1328 346.242 98.3984C346.633 99.6484 346.828 101.195 346.828 103.039V119H338.883V103.016C338.883 102 338.742 101.227 338.461 100.695C338.18 100.148 337.773 99.7734 337.242 99.5703C336.711 99.3672 336.062 99.2656 335.297 99.2656C334.484 99.2656 333.797 99.4219 333.234 99.7344C332.672 100.047 332.219 100.484 331.875 101.047C331.547 101.594 331.305 102.242 331.148 102.992C331.008 103.742 330.938 104.562 330.938 105.453ZM363.773 108.195H357.047C357.047 106.82 357.141 105.609 357.328 104.562C357.531 103.5 357.875 102.547 358.359 101.703C358.844 100.859 359.5 100.078 360.328 99.3594C361.062 98.75 361.695 98.1641 362.227 97.6016C362.758 97.0391 363.164 96.4688 363.445 95.8906C363.727 95.3125 363.867 94.6953 363.867 94.0391C363.867 93.2266 363.75 92.5625 363.516 92.0469C363.297 91.5312 362.961 91.1484 362.508 90.8984C362.07 90.6328 361.516 90.5 360.844 90.5C360.297 90.5 359.781 90.6328 359.297 90.8984C358.828 91.1641 358.445 91.5781 358.148 92.1406C357.852 92.6875 357.688 93.4141 357.656 94.3203H349.711C349.758 91.9922 350.273 90.1016 351.258 88.6484C352.258 87.1797 353.586 86.1094 355.242 85.4375C356.914 84.75 358.781 84.4062 360.844 84.4062C363.125 84.4062 365.086 84.7578 366.727 85.4609C368.367 86.1641 369.625 87.2109 370.5 88.6016C371.375 89.9766 371.812 91.6719 371.812 93.6875C371.812 95.0312 371.555 96.2031 371.039 97.2031C370.539 98.1875 369.859 99.1094 369 99.9688C368.156 100.812 367.211 101.719 366.164 102.688C365.258 103.484 364.641 104.297 364.312 105.125C363.984 105.938 363.805 106.961 363.773 108.195ZM356.086 115.32C356.086 114.195 356.492 113.258 357.305 112.508C358.117 111.742 359.172 111.359 360.469 111.359C361.766 111.359 362.82 111.742 363.633 112.508C364.445 113.258 364.852 114.195 364.852 115.32C364.852 116.445 364.445 117.391 363.633 118.156C362.82 118.906 361.766 119.281 360.469 119.281C359.172 119.281 358.117 118.906 357.305 118.156C356.492 117.391 356.086 116.445 356.086 115.32Z" fill="black"/>
<path d="M1134 0H1348C1356.28 0 1363 6.71573 1363 15V148C1363 156.284 1356.28 163 1348 163H1134V0Z" fill="#1299F3"/>
<path d="M1260.62 78.8847C1263.81 78.8847 1266.93 79.805 1269.59 81.5293C1272.25 83.2536 1274.32 85.7044 1275.54 88.5718C1276.76 91.4391 1277.08 94.5943 1276.46 97.6383C1275.84 100.682 1274.3 103.478 1272.04 105.673C1269.78 107.868 1266.9 109.362 1263.77 109.968C1260.63 110.573 1257.39 110.262 1254.43 109.075C1251.48 107.887 1248.96 105.876 1247.18 103.295C1245.41 100.714 1244.46 97.6806 1244.46 94.5769C1244.46 90.4151 1246.16 86.4237 1249.19 83.4808C1252.22 80.538 1256.33 78.8847 1260.62 78.8847ZM1260.62 73.6539C1256.36 73.6539 1252.19 74.881 1248.65 77.1801C1245.11 79.4791 1242.35 82.7469 1240.72 86.57C1239.09 90.3932 1238.66 94.6001 1239.49 98.6588C1240.32 102.717 1242.37 106.446 1245.39 109.372C1248.4 112.298 1252.24 114.291 1256.41 115.098C1260.59 115.905 1264.92 115.491 1268.86 113.907C1272.79 112.324 1276.16 109.642 1278.52 106.201C1280.89 102.76 1282.15 98.7151 1282.15 94.5769C1282.15 89.0278 1279.88 83.706 1275.85 79.7821C1271.81 75.8583 1266.33 73.6539 1260.62 73.6539Z" fill="white"/>
<path d="M1274.08 47.5H1220.23C1218.8 47.5 1217.43 48.0511 1216.42 49.0321C1215.41 50.013 1214.85 51.3435 1214.85 52.7307V105.038C1214.85 106.426 1215.41 107.756 1216.42 108.737C1217.43 109.718 1218.8 110.269 1220.23 110.269H1231V105.038H1220.23V68.423H1279.46V52.7307C1279.46 51.3435 1278.89 50.013 1277.88 49.0321C1276.87 48.0511 1275.5 47.5 1274.08 47.5ZM1220.23 63.1922V52.7307H1274.08V63.1922H1220.23Z" fill="white"/>
<path d="M1255.23 86.731V102.423L1268.69 94.5771L1255.23 86.731Z" fill="white"/>
</svg>
