<svg width="1363" height="163" viewBox="0 0 1363 163" fill="none" xmlns="http://www.w3.org/2000/svg">
<path d="M0 15C0 6.71573 6.71573 0 15 0H37V163H15C6.71573 163 0 156.284 0 148V15Z" fill="#424242"/>
<rect width="1097" height="163" transform="translate(37)" fill="#F0F0F0"/>
<path d="M101.906 53.9219L94.3945 51.2383V48.0859L104.602 52.375V54.6367L101.906 53.9219ZM94.3945 56.1719L101.918 53.4297L104.602 52.7852V55.0352L94.3945 59.3242V56.1719ZM118.137 61H114.422L114.445 58.2578H118.137C119.059 58.2578 119.836 58.0508 120.469 57.6367C121.102 57.2148 121.578 56.6016 121.898 55.7969C122.227 54.9922 122.391 54.0195 122.391 52.8789V52.0469C122.391 51.1719 122.297 50.4023 122.109 49.7383C121.93 49.0742 121.66 48.5156 121.301 48.0625C120.941 47.6094 120.5 47.2695 119.977 47.043C119.453 46.8086 118.852 46.6914 118.172 46.6914H114.352V43.9375H118.172C119.312 43.9375 120.355 44.1328 121.301 44.5234C122.254 44.9062 123.078 45.457 123.773 46.1758C124.469 46.8945 125.004 47.7539 125.379 48.7539C125.762 49.7461 125.953 50.8516 125.953 52.0703V52.8789C125.953 54.0898 125.762 55.1953 125.379 56.1953C125.004 57.1953 124.469 58.0547 123.773 58.7734C123.086 59.4844 122.262 60.0352 121.301 60.4258C120.348 60.8086 119.293 61 118.137 61ZM116.414 43.9375V61H112.898V43.9375H116.414ZM131.672 51.0859V61H128.297V48.3203H131.473L131.672 51.0859ZM135.492 48.2383L135.434 51.3672C135.27 51.3438 135.07 51.3242 134.836 51.3086C134.609 51.2852 134.402 51.2734 134.215 51.2734C133.738 51.2734 133.324 51.3359 132.973 51.4609C132.629 51.5781 132.34 51.7539 132.105 51.9883C131.879 52.2227 131.707 52.5078 131.59 52.8438C131.48 53.1797 131.418 53.5625 131.402 53.9922L130.723 53.7812C130.723 52.9609 130.805 52.207 130.969 51.5195C131.133 50.8242 131.371 50.2188 131.684 49.7031C132.004 49.1875 132.395 48.7891 132.855 48.5078C133.316 48.2266 133.844 48.0859 134.438 48.0859C134.625 48.0859 134.816 48.1016 135.012 48.1328C135.207 48.1562 135.367 48.1914 135.492 48.2383ZM143.531 58.1406V52.4922C143.531 52.0859 143.465 51.7383 143.332 51.4492C143.199 51.1523 142.992 50.9219 142.711 50.7578C142.438 50.5938 142.082 50.5117 141.645 50.5117C141.27 50.5117 140.945 50.5781 140.672 50.7109C140.398 50.8359 140.188 51.0195 140.039 51.2617C139.891 51.4961 139.816 51.7734 139.816 52.0938H136.441C136.441 51.5547 136.566 51.043 136.816 50.5586C137.066 50.0742 137.43 49.6484 137.906 49.2812C138.383 48.9062 138.949 48.6133 139.605 48.4023C140.27 48.1914 141.012 48.0859 141.832 48.0859C142.816 48.0859 143.691 48.25 144.457 48.5781C145.223 48.9062 145.824 49.3984 146.262 50.0547C146.707 50.7109 146.93 51.5312 146.93 52.5156V57.9414C146.93 58.6367 146.973 59.207 147.059 59.6523C147.145 60.0898 147.27 60.4727 147.434 60.8008V61H144.023C143.859 60.6562 143.734 60.2266 143.648 59.7109C143.57 59.1875 143.531 58.6641 143.531 58.1406ZM143.977 53.2773L144 55.1875H142.113C141.668 55.1875 141.281 55.2383 140.953 55.3398C140.625 55.4414 140.355 55.5859 140.145 55.7734C139.934 55.9531 139.777 56.1641 139.676 56.4062C139.582 56.6484 139.535 56.9141 139.535 57.2031C139.535 57.4922 139.602 57.7539 139.734 57.9883C139.867 58.2148 140.059 58.3945 140.309 58.5273C140.559 58.6523 140.852 58.7148 141.188 58.7148C141.695 58.7148 142.137 58.6133 142.512 58.4102C142.887 58.207 143.176 57.957 143.379 57.6602C143.59 57.3633 143.699 57.082 143.707 56.8164L144.598 58.2461C144.473 58.5664 144.301 58.8984 144.082 59.2422C143.871 59.5859 143.602 59.9102 143.273 60.2148C142.945 60.5117 142.551 60.7578 142.09 60.9531C141.629 61.1406 141.082 61.2344 140.449 61.2344C139.645 61.2344 138.914 61.0742 138.258 60.7539C137.609 60.4258 137.094 59.9766 136.711 59.4062C136.336 58.8281 136.148 58.1719 136.148 57.4375C136.148 56.7734 136.273 56.1836 136.523 55.668C136.773 55.1523 137.141 54.7188 137.625 54.3672C138.117 54.0078 138.73 53.7383 139.465 53.5586C140.199 53.3711 141.051 53.2773 142.02 53.2773H143.977ZM157.559 48.3203H160.617V60.5781C160.617 61.7344 160.359 62.7148 159.844 63.5195C159.336 64.332 158.625 64.9453 157.711 65.3594C156.797 65.7812 155.734 65.9922 154.523 65.9922C153.992 65.9922 153.43 65.9219 152.836 65.7812C152.25 65.6406 151.688 65.4219 151.148 65.125C150.617 64.8281 150.172 64.4531 149.812 64L151.301 62.0078C151.691 62.4609 152.145 62.8125 152.66 63.0625C153.176 63.3203 153.746 63.4492 154.371 63.4492C154.98 63.4492 155.496 63.3359 155.918 63.1094C156.34 62.8906 156.664 62.5664 156.891 62.1367C157.117 61.7148 157.23 61.2031 157.23 60.6016V51.25L157.559 48.3203ZM149.027 54.8125V54.5664C149.027 53.5977 149.145 52.7188 149.379 51.9297C149.621 51.1328 149.961 50.4492 150.398 49.8789C150.844 49.3086 151.383 48.8672 152.016 48.5547C152.648 48.2422 153.363 48.0859 154.16 48.0859C155.004 48.0859 155.711 48.2422 156.281 48.5547C156.852 48.8672 157.32 49.3125 157.688 49.8906C158.055 50.4609 158.34 51.1367 158.543 51.918C158.754 52.6914 158.918 53.5391 159.035 54.4609V55C158.918 55.8828 158.742 56.7031 158.508 57.4609C158.273 58.2188 157.965 58.8828 157.582 59.4531C157.199 60.0156 156.723 60.4531 156.152 60.7656C155.59 61.0781 154.918 61.2344 154.137 61.2344C153.355 61.2344 152.648 61.0742 152.016 60.7539C151.391 60.4336 150.855 59.9844 150.41 59.4062C149.965 58.8281 149.621 58.1484 149.379 57.3672C149.145 56.5859 149.027 55.7344 149.027 54.8125ZM152.402 54.5664V54.8125C152.402 55.3359 152.453 55.8242 152.555 56.2773C152.656 56.7305 152.812 57.1328 153.023 57.4844C153.242 57.8281 153.512 58.0977 153.832 58.293C154.16 58.4805 154.547 58.5742 154.992 58.5742C155.609 58.5742 156.113 58.4453 156.504 58.1875C156.895 57.9219 157.188 57.5586 157.383 57.0977C157.578 56.6367 157.691 56.1055 157.723 55.5039V53.9688C157.707 53.4766 157.641 53.0352 157.523 52.6445C157.406 52.2461 157.242 51.9062 157.031 51.625C156.82 51.3438 156.547 51.125 156.211 50.9688C155.875 50.8125 155.477 50.7344 155.016 50.7344C154.57 50.7344 154.184 50.8359 153.855 51.0391C153.535 51.2344 153.266 51.5039 153.047 51.8477C152.836 52.1914 152.676 52.5977 152.566 53.0664C152.457 53.5273 152.402 54.0273 152.402 54.5664ZM171.902 51.8711L175.184 49.75C175.668 49.4297 175.992 49.1211 176.156 48.8242C176.32 48.5273 176.402 48.1953 176.402 47.8281C176.402 47.4609 176.266 47.1211 175.992 46.8086C175.719 46.4883 175.336 46.3281 174.844 46.3281C174.492 46.3281 174.195 46.4102 173.953 46.5742C173.711 46.7305 173.527 46.9414 173.402 47.207C173.285 47.4727 173.227 47.7695 173.227 48.0977C173.227 48.4492 173.32 48.8086 173.508 49.1758C173.695 49.5352 173.949 49.918 174.27 50.3242C174.59 50.7227 174.945 51.1562 175.336 51.625L183.387 61H179.555L172.992 53.4062C172.438 52.7188 171.953 52.0898 171.539 51.5195C171.125 50.9414 170.801 50.3789 170.566 49.832C170.332 49.2852 170.215 48.7227 170.215 48.1445C170.215 47.2539 170.406 46.4766 170.789 45.8125C171.172 45.1406 171.711 44.6211 172.406 44.2539C173.102 43.8789 173.918 43.6914 174.855 43.6914C175.738 43.6914 176.504 43.875 177.152 44.2422C177.801 44.6016 178.301 45.0781 178.652 45.6719C179.012 46.2656 179.191 46.918 179.191 47.6289C179.191 48.1602 179.094 48.6523 178.898 49.1055C178.703 49.5508 178.434 49.9648 178.09 50.3477C177.746 50.7227 177.352 51.0703 176.906 51.3906L173.168 54.0508C172.879 54.3164 172.66 54.5781 172.512 54.8359C172.363 55.0938 172.262 55.3398 172.207 55.5742C172.152 55.8008 172.125 56.0195 172.125 56.2305C172.125 56.6836 172.223 57.0898 172.418 57.4492C172.613 57.8086 172.887 58.0898 173.238 58.293C173.59 58.4961 174 58.5977 174.469 58.5977C175.109 58.5977 175.73 58.457 176.332 58.1758C176.934 57.8945 177.473 57.4922 177.949 56.9688C178.426 56.4375 178.805 55.8086 179.086 55.082C179.367 54.3555 179.508 53.5547 179.508 52.6797H182.367C182.367 53.5547 182.281 54.3867 182.109 55.1758C181.938 55.957 181.66 56.6836 181.277 57.3555C180.895 58.0195 180.387 58.6094 179.754 59.125C179.707 59.1641 179.641 59.2227 179.555 59.3008C179.477 59.3711 179.41 59.4258 179.355 59.4648C178.605 60.0664 177.824 60.5156 177.012 60.8125C176.199 61.1016 175.293 61.2461 174.293 61.2461C173.152 61.2461 172.164 61.0391 171.328 60.625C170.5 60.2109 169.859 59.6406 169.406 58.9141C168.961 58.1875 168.738 57.3555 168.738 56.418C168.738 55.7305 168.871 55.1328 169.137 54.625C169.41 54.1094 169.785 53.6328 170.262 53.1953C170.738 52.7578 171.285 52.3164 171.902 51.8711ZM202.582 50.8867V53.6289H193.676V50.8867H202.582ZM194.719 43.9375V61H191.203V43.9375H194.719ZM205.09 43.9375V61H201.586V43.9375H205.09ZM207.398 54.7891V54.543C207.398 53.6133 207.531 52.7578 207.797 51.9766C208.062 51.1875 208.449 50.5039 208.957 49.9258C209.465 49.3477 210.09 48.8984 210.832 48.5781C211.574 48.25 212.426 48.0859 213.387 48.0859C214.348 48.0859 215.203 48.25 215.953 48.5781C216.703 48.8984 217.332 49.3477 217.84 49.9258C218.355 50.5039 218.746 51.1875 219.012 51.9766C219.277 52.7578 219.41 53.6133 219.41 54.543V54.7891C219.41 55.7109 219.277 56.5664 219.012 57.3555C218.746 58.1367 218.355 58.8203 217.84 59.4062C217.332 59.9844 216.707 60.4336 215.965 60.7539C215.223 61.0742 214.371 61.2344 213.41 61.2344C212.449 61.2344 211.594 61.0742 210.844 60.7539C210.102 60.4336 209.473 59.9844 208.957 59.4062C208.449 58.8203 208.062 58.1367 207.797 57.3555C207.531 56.5664 207.398 55.7109 207.398 54.7891ZM210.773 54.543V54.7891C210.773 55.3203 210.82 55.8164 210.914 56.2773C211.008 56.7383 211.156 57.1445 211.359 57.4961C211.57 57.8398 211.844 58.1094 212.18 58.3047C212.516 58.5 212.926 58.5977 213.41 58.5977C213.879 58.5977 214.281 58.5 214.617 58.3047C214.953 58.1094 215.223 57.8398 215.426 57.4961C215.629 57.1445 215.777 56.7383 215.871 56.2773C215.973 55.8164 216.023 55.3203 216.023 54.7891V54.543C216.023 54.0273 215.973 53.543 215.871 53.0898C215.777 52.6289 215.625 52.2227 215.414 51.8711C215.211 51.5117 214.941 51.2305 214.605 51.0273C214.27 50.8242 213.863 50.7227 213.387 50.7227C212.91 50.7227 212.504 50.8242 212.168 51.0273C211.84 51.2305 211.57 51.5117 211.359 51.8711C211.156 52.2227 211.008 52.6289 210.914 53.0898C210.82 53.543 210.773 54.0273 210.773 54.543ZM228.34 57.4961C228.34 57.2539 228.27 57.0352 228.129 56.8398C227.988 56.6445 227.727 56.4648 227.344 56.3008C226.969 56.1289 226.426 55.9727 225.715 55.832C225.074 55.6914 224.477 55.5156 223.922 55.3047C223.375 55.0859 222.898 54.8242 222.492 54.5195C222.094 54.2148 221.781 53.8555 221.555 53.4414C221.328 53.0195 221.215 52.5391 221.215 52C221.215 51.4688 221.328 50.9688 221.555 50.5C221.789 50.0312 222.121 49.6172 222.551 49.2578C222.988 48.8906 223.52 48.6055 224.145 48.4023C224.777 48.1914 225.488 48.0859 226.277 48.0859C227.379 48.0859 228.324 48.2617 229.113 48.6133C229.91 48.9648 230.52 49.4492 230.941 50.0664C231.371 50.6758 231.586 51.3711 231.586 52.1523H228.211C228.211 51.8242 228.141 51.5312 228 51.2734C227.867 51.0078 227.656 50.8008 227.367 50.6523C227.086 50.4961 226.719 50.418 226.266 50.418C225.891 50.418 225.566 50.4844 225.293 50.6172C225.02 50.7422 224.809 50.9141 224.66 51.1328C224.52 51.3438 224.449 51.5781 224.449 51.8359C224.449 52.0312 224.488 52.207 224.566 52.3633C224.652 52.5117 224.789 52.6484 224.977 52.7734C225.164 52.8984 225.406 53.0156 225.703 53.125C226.008 53.2266 226.383 53.3203 226.828 53.4062C227.742 53.5938 228.559 53.8398 229.277 54.1445C229.996 54.4414 230.566 54.8477 230.988 55.3633C231.41 55.8711 231.621 56.5391 231.621 57.3672C231.621 57.9297 231.496 58.4453 231.246 58.9141C230.996 59.3828 230.637 59.793 230.168 60.1445C229.699 60.4883 229.137 60.7578 228.48 60.9531C227.832 61.1406 227.102 61.2344 226.289 61.2344C225.109 61.2344 224.109 61.0234 223.289 60.6016C222.477 60.1797 221.859 59.6445 221.438 58.9961C221.023 58.3398 220.816 57.668 220.816 56.9805H224.016C224.031 57.4414 224.148 57.8125 224.367 58.0938C224.594 58.375 224.879 58.5781 225.223 58.7031C225.574 58.8281 225.953 58.8906 226.359 58.8906C226.797 58.8906 227.16 58.832 227.449 58.7148C227.738 58.5898 227.957 58.4258 228.105 58.2227C228.262 58.0117 228.34 57.7695 228.34 57.4961ZM240.023 48.3203V50.7109H232.641V48.3203H240.023ZM234.469 45.1914H237.844V57.1797C237.844 57.5469 237.891 57.8281 237.984 58.0234C238.086 58.2188 238.234 58.3555 238.43 58.4336C238.625 58.5039 238.871 58.5391 239.168 58.5391C239.379 58.5391 239.566 58.5312 239.73 58.5156C239.902 58.4922 240.047 58.4688 240.164 58.4453L240.176 60.9297C239.887 61.0234 239.574 61.0977 239.238 61.1523C238.902 61.207 238.531 61.2344 238.125 61.2344C237.383 61.2344 236.734 61.1133 236.18 60.8711C235.633 60.6211 235.211 60.2227 234.914 59.6758C234.617 59.1289 234.469 58.4102 234.469 57.5195V45.1914Z" fill="#888888"/>
<path d="M112.125 84.875V119H103.898V84.875H112.125ZM122.391 84.875V91.2266H93.8672V84.875H122.391ZM135.68 119.469C133.617 119.469 131.773 119.148 130.148 118.508C128.523 117.852 127.148 116.953 126.023 115.812C124.914 114.672 124.062 113.359 123.469 111.875C122.891 110.391 122.602 108.82 122.602 107.164V106.273C122.602 104.414 122.859 102.695 123.375 101.117C123.891 99.5234 124.656 98.1328 125.672 96.9453C126.688 95.7578 127.961 94.8359 129.492 94.1797C131.023 93.5078 132.805 93.1719 134.836 93.1719C136.633 93.1719 138.242 93.4609 139.664 94.0391C141.086 94.6172 142.289 95.4453 143.273 96.5234C144.273 97.6016 145.031 98.9062 145.547 100.438C146.078 101.969 146.344 103.688 146.344 105.594V108.805H125.625V103.859H138.633V103.25C138.648 102.406 138.5 101.688 138.188 101.094C137.891 100.5 137.453 100.047 136.875 99.7344C136.297 99.4219 135.594 99.2656 134.766 99.2656C133.906 99.2656 133.195 99.4531 132.633 99.8281C132.086 100.203 131.656 100.719 131.344 101.375C131.047 102.016 130.836 102.758 130.711 103.602C130.586 104.445 130.523 105.336 130.523 106.273V107.164C130.523 108.102 130.648 108.953 130.898 109.719C131.164 110.484 131.539 111.141 132.023 111.688C132.523 112.219 133.117 112.633 133.805 112.93C134.508 113.227 135.305 113.375 136.195 113.375C137.273 113.375 138.336 113.172 139.383 112.766C140.43 112.359 141.328 111.688 142.078 110.75L145.664 115.016C145.148 115.75 144.414 116.461 143.461 117.148C142.523 117.836 141.398 118.398 140.086 118.836C138.773 119.258 137.305 119.469 135.68 119.469ZM160.266 113.375C161 113.375 161.625 113.242 162.141 112.977C162.672 112.695 163.07 112.305 163.336 111.805C163.617 111.289 163.75 110.672 163.734 109.953H171.164C171.18 111.859 170.711 113.531 169.758 114.969C168.82 116.391 167.539 117.5 165.914 118.297C164.305 119.078 162.484 119.469 160.453 119.469C158.469 119.469 156.734 119.148 155.25 118.508C153.766 117.852 152.523 116.945 151.523 115.789C150.539 114.617 149.797 113.25 149.297 111.688C148.812 110.125 148.57 108.43 148.57 106.602V106.062C148.57 104.234 148.812 102.539 149.297 100.977C149.797 99.3984 150.539 98.0312 151.523 96.875C152.523 95.7031 153.758 94.7969 155.227 94.1562C156.711 93.5 158.438 93.1719 160.406 93.1719C162.516 93.1719 164.375 93.5703 165.984 94.3672C167.609 95.1641 168.883 96.3203 169.805 97.8359C170.727 99.3516 171.18 101.188 171.164 103.344H163.734C163.75 102.578 163.633 101.891 163.383 101.281C163.133 100.672 162.742 100.188 162.211 99.8281C161.695 99.4531 161.031 99.2656 160.219 99.2656C159.406 99.2656 158.75 99.4453 158.25 99.8047C157.75 100.164 157.367 100.664 157.102 101.305C156.852 101.93 156.68 102.648 156.586 103.461C156.508 104.273 156.469 105.141 156.469 106.062V106.602C156.469 107.539 156.508 108.422 156.586 109.25C156.68 110.062 156.859 110.781 157.125 111.406C157.391 112.016 157.773 112.5 158.273 112.859C158.773 113.203 159.438 113.375 160.266 113.375ZM182.273 83V119H174.375V83H182.273ZM181.336 105.453L179.484 105.5C179.484 103.719 179.703 102.078 180.141 100.578C180.578 99.0781 181.203 97.7734 182.016 96.6641C182.828 95.5547 183.805 94.6953 184.945 94.0859C186.086 93.4766 187.352 93.1719 188.742 93.1719C189.992 93.1719 191.133 93.3516 192.164 93.7109C193.211 94.0703 194.109 94.6484 194.859 95.4453C195.625 96.2422 196.211 97.2812 196.617 98.5625C197.039 99.8438 197.25 101.406 197.25 103.25V119H189.305V103.203C189.305 102.172 189.156 101.375 188.859 100.812C188.578 100.234 188.172 99.8359 187.641 99.6172C187.109 99.3828 186.461 99.2656 185.695 99.2656C184.773 99.2656 184.023 99.4219 183.445 99.7344C182.867 100.047 182.422 100.484 182.109 101.047C181.812 101.594 181.609 102.242 181.5 102.992C181.391 103.742 181.336 104.562 181.336 105.453ZM231.539 109.93C231.539 109.398 231.461 108.922 231.305 108.5C231.148 108.062 230.859 107.656 230.438 107.281C230.016 106.906 229.406 106.531 228.609 106.156C227.828 105.766 226.797 105.359 225.516 104.938C224.016 104.438 222.57 103.875 221.18 103.25C219.789 102.609 218.547 101.867 217.453 101.023C216.359 100.164 215.492 99.1641 214.852 98.0234C214.211 96.8672 213.891 95.5234 213.891 93.9922C213.891 92.5234 214.219 91.2031 214.875 90.0312C215.531 88.8438 216.445 87.8359 217.617 87.0078C218.805 86.1641 220.195 85.5234 221.789 85.0859C223.383 84.6328 225.125 84.4062 227.016 84.4062C229.516 84.4062 231.719 84.8438 233.625 85.7188C235.547 86.5781 237.047 87.8047 238.125 89.3984C239.219 90.9766 239.766 92.8438 239.766 95H231.586C231.586 94.1406 231.406 93.3828 231.047 92.7266C230.703 92.0703 230.18 91.5547 229.477 91.1797C228.773 90.8047 227.891 90.6172 226.828 90.6172C225.797 90.6172 224.93 90.7734 224.227 91.0859C223.523 91.3984 222.992 91.8203 222.633 92.3516C222.273 92.8672 222.094 93.4375 222.094 94.0625C222.094 94.5781 222.234 95.0469 222.516 95.4688C222.812 95.875 223.227 96.2578 223.758 96.6172C224.305 96.9766 224.961 97.3203 225.727 97.6484C226.508 97.9766 227.383 98.2969 228.352 98.6094C230.164 99.1875 231.773 99.8359 233.18 100.555C234.602 101.258 235.797 102.062 236.766 102.969C237.75 103.859 238.492 104.875 238.992 106.016C239.508 107.156 239.766 108.445 239.766 109.883C239.766 111.414 239.469 112.773 238.875 113.961C238.281 115.148 237.43 116.156 236.32 116.984C235.211 117.797 233.883 118.414 232.336 118.836C230.789 119.258 229.062 119.469 227.156 119.469C225.406 119.469 223.68 119.25 221.977 118.812C220.289 118.359 218.758 117.672 217.383 116.75C216.008 115.812 214.906 114.617 214.078 113.164C213.266 111.695 212.859 109.953 212.859 107.938H221.109C221.109 108.938 221.242 109.781 221.508 110.469C221.773 111.156 222.164 111.711 222.68 112.133C223.195 112.539 223.828 112.836 224.578 113.023C225.328 113.195 226.188 113.281 227.156 113.281C228.203 113.281 229.047 113.133 229.688 112.836C230.328 112.523 230.797 112.117 231.094 111.617C231.391 111.102 231.539 110.539 231.539 109.93ZM256.992 93.6406V99.125H241.711V93.6406H256.992ZM244.922 87.3359H252.82V110.727C252.82 111.398 252.898 111.922 253.055 112.297C253.211 112.656 253.477 112.914 253.852 113.07C254.242 113.211 254.758 113.281 255.398 113.281C255.852 113.281 256.227 113.273 256.523 113.258C256.82 113.227 257.102 113.188 257.367 113.141V118.789C256.695 119.008 255.992 119.172 255.258 119.281C254.523 119.406 253.742 119.469 252.914 119.469C251.227 119.469 249.781 119.203 248.578 118.672C247.391 118.141 246.484 117.305 245.859 116.164C245.234 115.023 244.922 113.539 244.922 111.711V87.3359ZM273.305 112.625V102.172C273.305 101.453 273.203 100.836 273 100.32C272.797 99.8047 272.477 99.4062 272.039 99.125C271.602 98.8281 271.016 98.6797 270.281 98.6797C269.688 98.6797 269.18 98.7812 268.758 98.9844C268.336 99.1875 268.016 99.4922 267.797 99.8984C267.578 100.305 267.469 100.82 267.469 101.445H259.57C259.57 100.273 259.828 99.1875 260.344 98.1875C260.875 97.1719 261.625 96.2891 262.594 95.5391C263.578 94.7891 264.75 94.2109 266.109 93.8047C267.484 93.3828 269.016 93.1719 270.703 93.1719C272.719 93.1719 274.516 93.5078 276.094 94.1797C277.688 94.8516 278.945 95.8594 279.867 97.2031C280.789 98.5312 281.25 100.203 281.25 102.219V112.602C281.25 114.258 281.344 115.516 281.531 116.375C281.719 117.219 281.984 117.961 282.328 118.602V119H274.406C274.031 118.219 273.75 117.266 273.562 116.141C273.391 115 273.305 113.828 273.305 112.625ZM274.266 103.508L274.312 107.727H270.82C270.086 107.727 269.461 107.828 268.945 108.031C268.445 108.234 268.039 108.516 267.727 108.875C267.43 109.219 267.211 109.609 267.07 110.047C266.945 110.484 266.883 110.945 266.883 111.43C266.883 111.898 266.992 112.32 267.211 112.695C267.445 113.055 267.758 113.336 268.148 113.539C268.539 113.742 268.977 113.844 269.461 113.844C270.336 113.844 271.078 113.68 271.688 113.352C272.312 113.008 272.789 112.594 273.117 112.109C273.445 111.625 273.609 111.172 273.609 110.75L275.344 113.984C275.031 114.609 274.672 115.242 274.266 115.883C273.875 116.523 273.383 117.117 272.789 117.664C272.211 118.195 271.5 118.633 270.656 118.977C269.812 119.305 268.789 119.469 267.586 119.469C266.023 119.469 264.586 119.148 263.273 118.508C261.977 117.867 260.938 116.977 260.156 115.836C259.375 114.68 258.984 113.352 258.984 111.852C258.984 110.539 259.219 109.367 259.688 108.336C260.172 107.305 260.898 106.43 261.867 105.711C262.836 104.992 264.07 104.445 265.57 104.07C267.07 103.695 268.836 103.508 270.867 103.508H274.266ZM296.344 113.375C297.078 113.375 297.703 113.242 298.219 112.977C298.75 112.695 299.148 112.305 299.414 111.805C299.695 111.289 299.828 110.672 299.812 109.953H307.242C307.258 111.859 306.789 113.531 305.836 114.969C304.898 116.391 303.617 117.5 301.992 118.297C300.383 119.078 298.562 119.469 296.531 119.469C294.547 119.469 292.812 119.148 291.328 118.508C289.844 117.852 288.602 116.945 287.602 115.789C286.617 114.617 285.875 113.25 285.375 111.688C284.891 110.125 284.648 108.43 284.648 106.602V106.062C284.648 104.234 284.891 102.539 285.375 100.977C285.875 99.3984 286.617 98.0312 287.602 96.875C288.602 95.7031 289.836 94.7969 291.305 94.1562C292.789 93.5 294.516 93.1719 296.484 93.1719C298.594 93.1719 300.453 93.5703 302.062 94.3672C303.688 95.1641 304.961 96.3203 305.883 97.8359C306.805 99.3516 307.258 101.188 307.242 103.344H299.812C299.828 102.578 299.711 101.891 299.461 101.281C299.211 100.672 298.82 100.188 298.289 99.8281C297.773 99.4531 297.109 99.2656 296.297 99.2656C295.484 99.2656 294.828 99.4453 294.328 99.8047C293.828 100.164 293.445 100.664 293.18 101.305C292.93 101.93 292.758 102.648 292.664 103.461C292.586 104.273 292.547 105.141 292.547 106.062V106.602C292.547 107.539 292.586 108.422 292.664 109.25C292.758 110.062 292.938 110.781 293.203 111.406C293.469 112.016 293.852 112.5 294.352 112.859C294.852 113.203 295.516 113.375 296.344 113.375ZM318.586 82.9766V119H310.688V82.9766H318.586ZM334.805 93.6406L323.789 106.555L318.023 112.32L314.578 107.305L319.383 101.047L325.336 93.6406H334.805ZM326.344 119L319.57 107.445L325.406 103.297L335.391 119H326.344ZM350.156 111.875C350.156 111.438 350.008 111.062 349.711 110.75C349.43 110.422 348.93 110.125 348.211 109.859C347.492 109.578 346.484 109.297 345.188 109.016C343.953 108.75 342.789 108.398 341.695 107.961C340.617 107.523 339.672 106.992 338.859 106.367C338.047 105.742 337.406 105 336.938 104.141C336.484 103.281 336.258 102.297 336.258 101.188C336.258 100.109 336.484 99.0938 336.938 98.1406C337.406 97.1719 338.086 96.3203 338.977 95.5859C339.883 94.8359 340.984 94.25 342.281 93.8281C343.578 93.3906 345.055 93.1719 346.711 93.1719C348.992 93.1719 350.961 93.5234 352.617 94.2266C354.273 94.9141 355.547 95.8828 356.438 97.1328C357.344 98.3672 357.797 99.7969 357.797 101.422H349.898C349.898 100.781 349.789 100.234 349.57 99.7812C349.367 99.3281 349.031 98.9844 348.562 98.75C348.094 98.5 347.469 98.375 346.688 98.375C346.141 98.375 345.641 98.4766 345.188 98.6797C344.75 98.8828 344.398 99.1641 344.133 99.5234C343.867 99.8828 343.734 100.305 343.734 100.789C343.734 101.133 343.812 101.445 343.969 101.727C344.141 101.992 344.398 102.242 344.742 102.477C345.086 102.695 345.523 102.898 346.055 103.086C346.586 103.258 347.227 103.414 347.977 103.555C349.68 103.867 351.273 104.312 352.758 104.891C354.242 105.469 355.445 106.289 356.367 107.352C357.305 108.414 357.773 109.844 357.773 111.641C357.773 112.766 357.516 113.805 357 114.758C356.484 115.695 355.742 116.523 354.773 117.242C353.805 117.945 352.641 118.492 351.281 118.883C349.922 119.273 348.391 119.469 346.688 119.469C344.266 119.469 342.219 119.039 340.547 118.18C338.875 117.305 337.609 116.211 336.75 114.898C335.906 113.57 335.484 112.227 335.484 110.867H342.844C342.875 111.648 343.062 112.289 343.406 112.789C343.766 113.289 344.242 113.656 344.836 113.891C345.43 114.125 346.117 114.242 346.898 114.242C347.617 114.242 348.211 114.141 348.68 113.938C349.164 113.734 349.531 113.461 349.781 113.117C350.031 112.758 350.156 112.344 350.156 111.875Z" fill="black"/>
<path d="M1134 0H1348C1356.28 0 1363 6.71573 1363 15V148C1363 156.284 1356.28 163 1348 163H1134V0Z" fill="#1299F3"/>
<path fill-rule="evenodd" clip-rule="evenodd" d="M1219.98 53C1219.85 53 1219.73 53.0527 1219.64 53.1464C1219.55 53.2402 1219.5 53.3674 1219.5 53.5V109.5C1219.5 109.633 1219.55 109.76 1219.64 109.854C1219.73 109.947 1219.85 110 1219.98 110H1277.02C1277.15 110 1277.27 109.947 1277.36 109.854C1277.45 109.76 1277.5 109.633 1277.5 109.5V64C1277.5 63.8674 1277.45 63.7402 1277.36 63.6464C1277.27 63.5527 1277.15 63.5 1277.02 63.5H1248.5C1247.65 63.5 1246.84 63.1045 1246.29 62.4206L1238.77 53H1219.98ZM1215.58 48.9038C1216.74 47.6848 1218.33 47 1219.98 47H1240.11C1240.97 47 1241.77 47.3955 1242.32 48.0794L1249.85 57.5H1277.02C1278.67 57.5 1280.26 58.1848 1281.42 59.4038C1282.59 60.6228 1283.25 62.2761 1283.25 64V109.5C1283.25 111.224 1282.59 112.877 1281.42 114.096C1280.26 115.315 1278.67 116 1277.02 116H1219.98C1218.33 116 1216.74 115.315 1215.58 114.096C1214.41 112.877 1213.75 111.224 1213.75 109.5V53.5C1213.75 51.7761 1214.41 50.1228 1215.58 48.9038Z" fill="white"/>
<path fill-rule="evenodd" clip-rule="evenodd" d="M1244.16 75.5251C1245.47 76.892 1245.47 79.108 1244.16 80.4749L1238.15 86.75L1244.16 93.0251C1245.47 94.392 1245.47 96.608 1244.16 97.9749C1242.85 99.3417 1240.73 99.3417 1239.42 97.9749L1231.03 89.2249C1229.72 87.858 1229.72 85.642 1231.03 84.2751L1239.42 75.5251C1240.73 74.1583 1242.85 74.1583 1244.16 75.5251Z" fill="white"/>
<path fill-rule="evenodd" clip-rule="evenodd" d="M1252.12 97.9749C1250.81 96.608 1250.81 94.392 1252.12 93.0251L1258.13 86.75L1252.12 80.4749C1250.81 79.108 1250.81 76.892 1252.12 75.5251C1253.43 74.1583 1255.55 74.1583 1256.86 75.5251L1265.25 84.2751C1266.56 85.642 1266.56 87.858 1265.25 89.2249L1256.86 97.9749C1255.55 99.3417 1253.43 99.3417 1252.12 97.9749Z" fill="white"/>
</svg>
